<svg xmlns="http://www.w3.org/2000/svg" style="width:0; height:0; visibility:hidden;">
  <defs>
       <filter id="filter0_d" x="0.0266914" y="0.616015" width="399.908" height="358.036" filterUnits="userSpaceOnUse" color-interpolation-filters="sRGB"> <feFlood flood-opacity="0" result="BackgroundImageFix"/> <feColorMatrix in="SourceAlpha" type="matrix" values="0 0 0 0 0 0 0 0 0 0 0 0 0 0 0 0 0 0 127 0"/> <feOffset dy="7.58932"/> <feGaussianBlur stdDeviation="9.48665"/> <feColorMatrix type="matrix" values="0 0 0 0 0 0 0 0 0 0 0 0 0 0 0 0 0 0 0.12 0"/> <feBlend mode="normal" in2="BackgroundImageFix" result="effect1_dropShadow"/> <feBlend mode="normal" in="SourceGraphic" in2="effect1_dropShadow" result="shape"/> </filter> 
 <filter id="filter0_d" x="0.0266914" y="0.29082" width="399.908" height="358.036" filterUnits="userSpaceOnUse" color-interpolation-filters="sRGB"> <feFlood flood-opacity="0" result="BackgroundImageFix"/> <feColorMatrix in="SourceAlpha" type="matrix" values="0 0 0 0 0 0 0 0 0 0 0 0 0 0 0 0 0 0 127 0"/> <feOffset dy="7.58932"/> <feGaussianBlur stdDeviation="9.48665"/> <feColorMatrix type="matrix" values="0 0 0 0 0 0 0 0 0 0 0 0 0 0 0 0 0 0 0.12 0"/> <feBlend mode="normal" in2="BackgroundImageFix" result="effect1_dropShadow"/> <feBlend mode="normal" in="SourceGraphic" in2="effect1_dropShadow" result="shape"/> </filter> 
 <filter id="filter0_d" x="0.0266914" y="0.29082" width="399.908" height="358.036" filterUnits="userSpaceOnUse" color-interpolation-filters="sRGB"> <feFlood flood-opacity="0" result="BackgroundImageFix"/> <feColorMatrix in="SourceAlpha" type="matrix" values="0 0 0 0 0 0 0 0 0 0 0 0 0 0 0 0 0 0 127 0"/> <feOffset dy="7.58932"/> <feGaussianBlur stdDeviation="9.48665"/> <feColorMatrix type="matrix" values="0 0 0 0 0 0 0 0 0 0 0 0 0 0 0 0 0 0 0.12 0"/> <feBlend mode="normal" in2="BackgroundImageFix" result="effect1_dropShadow"/> <feBlend mode="normal" in="SourceGraphic" in2="effect1_dropShadow" result="shape"/> </filter> <filter id="filter1_ii" x="94.1241" y="31.5061" width="211.713" height="192.036" filterUnits="userSpaceOnUse" color-interpolation-filters="sRGB"> <feFlood flood-opacity="0" result="BackgroundImageFix"/> <feBlend mode="normal" in="SourceGraphic" in2="BackgroundImageFix" result="shape"/> <feColorMatrix in="SourceAlpha" type="matrix" values="0 0 0 0 0 0 0 0 0 0 0 0 0 0 0 0 0 0 127 0" result="hardAlpha"/> <feOffset dy="1.80545"/> <feComposite in2="hardAlpha" operator="arithmetic" k2="-1" k3="1"/> <feColorMatrix type="matrix" values="0 0 0 0 0.768627 0 0 0 0 0.78451 0 0 0 0 0.803922 0 0 0 1 0"/> <feBlend mode="normal" in2="shape" result="effect1_innerShadow"/> <feColorMatrix in="SourceAlpha" type="matrix" values="0 0 0 0 0 0 0 0 0 0 0 0 0 0 0 0 0 0 127 0" result="hardAlpha"/> <feOffset dy="-1.80545"/> <feComposite in2="hardAlpha" operator="arithmetic" k2="-1" k3="1"/> <feColorMatrix type="matrix" values="0 0 0 0 0.764706 0 0 0 0 0.784314 0 0 0 0 0.803922 0 0 0 1 0"/> <feBlend mode="normal" in2="effect1_innerShadow" result="effect2_innerShadow"/> </filter> 
 <filter id="filter0_d" x="0.0266914" y="0.772753" width="399.908" height="358.036" filterUnits="userSpaceOnUse" color-interpolation-filters="sRGB"> <feFlood flood-opacity="0" result="BackgroundImageFix"/> <feColorMatrix in="SourceAlpha" type="matrix" values="0 0 0 0 0 0 0 0 0 0 0 0 0 0 0 0 0 0 127 0"/> <feOffset dy="7.58932"/> <feGaussianBlur stdDeviation="9.48665"/> <feColorMatrix type="matrix" values="0 0 0 0 0 0 0 0 0 0 0 0 0 0 0 0 0 0 0.12 0"/> <feBlend mode="normal" in2="BackgroundImageFix" result="effect1_dropShadow"/> <feBlend mode="normal" in="SourceGraphic" in2="effect1_dropShadow" result="shape"/> </filter> 
 <filter id="filter0_d" x="0.0266914" y="0.616015" width="399.908" height="358.036" filterUnits="userSpaceOnUse" color-interpolation-filters="sRGB"> <feFlood flood-opacity="0" result="BackgroundImageFix"/> <feColorMatrix in="SourceAlpha" type="matrix" values="0 0 0 0 0 0 0 0 0 0 0 0 0 0 0 0 0 0 127 0"/> <feOffset dy="7.58932"/> <feGaussianBlur stdDeviation="9.48665"/> <feColorMatrix type="matrix" values="0 0 0 0 0 0 0 0 0 0 0 0 0 0 0 0 0 0 0.12 0"/> <feBlend mode="normal" in2="BackgroundImageFix" result="effect1_dropShadow"/> <feBlend mode="normal" in="SourceGraphic" in2="effect1_dropShadow" result="shape"/> </filter> 
  </defs>
    <symbol id="icon_layer1" viewBox="0 0 400 359">
       <g filter="url(#filter0_d)"> <rect x="19" y="12" width="361.961" height="320.09" fill="white" fill-opacity="0.49"/> </g> <rect x="19" y="21.332" width="361.961" height="320.09" fill="white"/> <rect opacity="0.46" x="19" y="16.6663" width="361.961" height="320.09" fill="white"/> <path fill-rule="evenodd" clip-rule="evenodd" d="M46.08 184.251C45.4454 184.251 44.9311 184.765 44.9311 185.4V190.079C44.9311 190.714 45.4454 191.228 46.08 191.228H356.367C357.002 191.228 357.516 190.714 357.516 190.079V185.4C357.516 184.765 357.002 184.251 356.367 184.251H46.08Z" fill="#CFD3D6"/> <path fill-rule="evenodd" clip-rule="evenodd" d="M46.08 195.691C45.4454 195.691 44.9311 196.205 44.9311 196.84V201.519C44.9311 202.154 45.4454 202.668 46.08 202.668H356.367C357.002 202.668 357.516 202.154 357.516 201.519V196.84C357.516 196.205 357.002 195.691 356.367 195.691H46.08Z" fill="#CFD3D6"/> <path fill-rule="evenodd" clip-rule="evenodd" d="M46.08 206.559C45.4454 206.559 44.9311 207.073 44.9311 207.708V212.387C44.9311 213.022 45.4454 213.536 46.08 213.536H356.367C357.002 213.536 357.516 213.022 357.516 212.387V207.708C357.516 207.073 357.002 206.559 356.367 206.559H46.08Z" fill="#CFD3D6"/> <path fill-rule="evenodd" clip-rule="evenodd" d="M46.08 217.999C45.4454 217.999 44.9311 218.514 44.9311 219.148V223.827C44.9311 224.462 45.4454 224.976 46.08 224.976H356.367C357.002 224.976 357.516 224.462 357.516 223.827V219.148C357.516 218.514 357.002 217.999 356.367 217.999H46.08Z" fill="#CFD3D6"/> <path fill-rule="evenodd" clip-rule="evenodd" d="M46.08 173.383C45.4454 173.383 44.9311 173.897 44.9311 174.532V179.211C44.9311 179.846 45.4454 180.36 46.08 180.36H356.367C357.002 180.36 357.516 179.846 357.516 179.211V174.532C357.516 173.897 357.002 173.383 356.367 173.383H46.08Z" fill="#CFD3D6"/> <path fill-rule="evenodd" clip-rule="evenodd" d="M46.0799 157.053C45.4454 157.053 44.931 157.568 44.931 158.202V165.228C44.931 165.862 45.4454 166.377 46.0799 166.377H92.2795C92.9141 166.377 93.4284 165.862 93.4284 165.228V158.202C93.4284 157.568 92.9141 157.053 92.2795 157.053H46.0799Z" fill="#ACB2B8"/> <path fill-rule="evenodd" clip-rule="evenodd" d="M46.0799 254.922C45.4454 254.922 44.931 255.436 44.931 256.071V262.945C44.931 263.579 45.4454 264.094 46.0799 264.094H128.405C129.039 264.094 129.554 263.579 129.554 262.945V256.071C129.554 255.436 129.039 254.922 128.405 254.922H46.0799Z" fill="#ACB2B8"/> <path fill-rule="evenodd" clip-rule="evenodd" d="M35.7156 63.6145C34.4465 63.6145 33.4178 64.6433 33.4178 65.9123V119.789C33.4178 121.058 34.4465 122.087 35.7156 122.087H365.004C366.274 122.087 367.302 121.058 367.302 119.789V65.9123C367.302 64.6433 366.274 63.6145 365.004 63.6145H35.7156Z" fill="#E9EFF5"/> <path fill-rule="evenodd" clip-rule="evenodd" d="M115.735 97.3916C115.101 97.3916 114.586 97.906 114.586 98.5405V103.235C114.586 103.87 115.101 104.384 115.735 104.384H271.072C271.707 104.384 272.221 103.87 272.221 103.235V98.5405C272.221 97.906 271.707 97.3916 271.072 97.3916H115.735Z" fill="#CFD3D6"/> <path fill-rule="evenodd" clip-rule="evenodd" d="M149.362 81.2344C148.727 81.2344 148.213 81.7488 148.213 82.3833V89.4085C148.213 90.0431 148.727 90.5575 149.362 90.5575H237.542C238.177 90.5575 238.691 90.0431 238.691 89.4085V82.3833C238.691 81.7488 238.177 81.2344 237.542 81.2344H149.362Z" fill="#ACB2B8"/>  
    </symbol>
    <symbol id="icon_layer2" viewBox="0 0 400 359">
       <g filter="url(#filter0_d)"> <rect x="19" y="11.6748" width="361.961" height="320.09" fill="white" fill-opacity="0.49"/> </g> <rect x="19" y="21.0066" width="361.961" height="320.09" fill="white"/> <rect opacity="0.46" x="19" y="16.3408" width="361.961" height="320.09" fill="white"/> <path fill-rule="evenodd" clip-rule="evenodd" d="M109.377 88.187C115.287 88.187 120.077 83.3957 120.077 77.4853C120.077 71.575 115.287 66.7837 109.377 66.7837C103.468 66.7837 98.677 71.575 98.677 77.4853C98.677 83.3957 103.468 88.187 109.377 88.187Z" fill="#C5C5C5"/> <path fill-rule="evenodd" clip-rule="evenodd" d="M109.712 85.5118C113.959 85.5118 117.402 82.0681 117.402 77.82C117.402 73.5719 113.959 70.1282 109.712 70.1282C105.464 70.1282 102.021 73.5719 102.021 77.82C102.021 82.0681 105.464 85.5118 109.712 85.5118Z" fill="#B4B4B4"/> <path fill-rule="evenodd" clip-rule="evenodd" d="M129.591 81.939C128.852 81.939 128.253 82.5378 128.253 83.2766V84.8429C128.253 85.5816 128.811 86.1805 129.549 86.1805C139.048 86.1805 198.367 86.1805 228.704 86.1805C231.264 86.1805 236.491 86.1805 238.952 86.1805C239.691 86.1805 240.289 85.5816 240.289 84.8429V83.2766C240.289 82.5378 239.691 81.939 238.952 81.939H129.591Z" fill="#CFD3D6"/> <path fill-rule="evenodd" clip-rule="evenodd" d="M128.922 90.1772C128.183 90.1772 127.584 90.7761 127.584 91.5149V93.0811C127.584 93.8199 128.182 94.4188 128.921 94.4188C142.096 94.4188 249.411 94.4188 303.733 94.4188C308.612 94.4188 319.018 94.4188 322.713 94.4188C323.452 94.4188 324.049 93.8199 324.049 93.0811V91.5149C324.049 90.7761 323.45 90.1772 322.711 90.1772H128.922Z" fill="#CFD3D6"/> <path fill-rule="evenodd" clip-rule="evenodd" d="M128.922 99.0845C128.183 99.0845 127.584 99.6833 127.584 100.422V101.988C127.584 102.727 128.182 103.326 128.921 103.326C142.096 103.326 249.411 103.326 303.733 103.326C308.612 103.326 319.018 103.326 322.713 103.326C323.452 103.326 324.049 102.727 324.049 101.988V100.422C324.049 99.6833 323.45 99.0845 322.711 99.0845H128.922Z" fill="#CFD3D6"/> <path fill-rule="evenodd" clip-rule="evenodd" d="M129.44 68.7903C128.701 68.7903 128.102 69.3892 128.102 70.1279V76.1478C128.102 76.8865 128.701 77.4854 129.44 77.4854H184.278C185.017 77.4854 185.616 76.8865 185.616 76.1478V70.1279C185.616 69.3892 185.017 68.7903 184.278 68.7903H129.44Z" fill="#ACB2B8"/> <path fill-rule="evenodd" clip-rule="evenodd" d="M186.953 42.0361C186.215 42.0361 185.616 42.635 185.616 43.3737V54.7444C185.616 55.4832 186.215 56.0821 186.953 56.0821H257.173C257.912 56.0821 258.511 55.4832 258.511 54.7444V43.3737C258.511 42.635 257.912 42.0361 257.173 42.0361H186.953Z" fill="#ACB2B8"/> <path fill-rule="evenodd" clip-rule="evenodd" d="M109.377 266.771C115.287 266.771 120.077 261.98 120.077 256.069C120.077 250.159 115.287 245.368 109.377 245.368C103.468 245.368 98.677 250.159 98.677 256.069C98.677 261.98 103.468 266.771 109.377 266.771Z" fill="#C5C5C5"/> <path fill-rule="evenodd" clip-rule="evenodd" d="M109.712 264.096C113.959 264.096 117.402 260.652 117.402 256.404C117.402 252.156 113.959 248.712 109.712 248.712C105.464 248.712 102.021 252.156 102.021 256.404C102.021 260.652 105.464 264.096 109.712 264.096Z" fill="#B4B4B4"/> <path fill-rule="evenodd" clip-rule="evenodd" d="M129.591 260.523C128.852 260.523 128.253 261.122 128.253 261.861V263.427C128.253 264.166 128.811 264.764 129.549 264.764C139.048 264.764 198.367 264.764 228.704 264.764C231.264 264.764 236.491 264.764 238.952 264.764C239.691 264.764 240.289 264.166 240.289 263.427V261.861C240.289 261.122 239.691 260.523 238.952 260.523H129.591Z" fill="#CFD3D6"/> <path fill-rule="evenodd" clip-rule="evenodd" d="M128.922 268.761C128.183 268.761 127.584 269.36 127.584 270.099V271.665C127.584 272.404 128.182 273.003 128.921 273.003C142.096 273.003 249.411 273.003 303.733 273.003C308.612 273.003 319.018 273.003 322.713 273.003C323.452 273.003 324.049 272.404 324.049 271.665V270.099C324.049 269.36 323.45 268.761 322.711 268.761H128.922Z" fill="#CFD3D6"/> <path fill-rule="evenodd" clip-rule="evenodd" d="M128.922 277.668C128.183 277.668 127.584 278.267 127.584 279.006V280.572C127.584 281.311 128.182 281.91 128.921 281.91C142.096 281.91 249.411 281.91 303.733 281.91C308.612 281.91 319.018 281.91 322.713 281.91C323.452 281.91 324.049 281.311 324.049 280.572V279.006C324.049 278.267 323.45 277.668 322.711 277.668H128.922Z" fill="#CFD3D6"/> <path fill-rule="evenodd" clip-rule="evenodd" d="M129.44 247.374C128.701 247.374 128.102 247.973 128.102 248.712V254.732C128.102 255.47 128.701 256.069 129.44 256.069H225.741C226.48 256.069 227.079 255.47 227.079 254.732V248.712C227.079 247.973 226.48 247.374 225.741 247.374H129.44Z" fill="#ACB2B8"/> <path fill-rule="evenodd" clip-rule="evenodd" d="M109.377 135.007C115.287 135.007 120.077 130.216 120.077 124.305C120.077 118.395 115.287 113.604 109.377 113.604C103.468 113.604 98.677 118.395 98.677 124.305C98.677 130.216 103.468 135.007 109.377 135.007Z" fill="#C5C5C5"/> <path fill-rule="evenodd" clip-rule="evenodd" d="M109.712 132.331C113.959 132.331 117.402 128.888 117.402 124.64C117.402 120.391 113.959 116.948 109.712 116.948C105.464 116.948 102.021 120.391 102.021 124.64C102.021 128.888 105.464 132.331 109.712 132.331Z" fill="#B4B4B4"/> <path fill-rule="evenodd" clip-rule="evenodd" d="M129.591 128.759C128.852 128.759 128.253 129.357 128.253 130.096V131.662C128.253 132.401 128.811 133 129.549 133C139.048 133 198.367 133 228.704 133C231.264 133 236.491 133 238.952 133C239.691 133 240.289 132.401 240.289 131.662V130.096C240.289 129.357 239.691 128.759 238.952 128.759H129.591Z" fill="#CFD3D6"/> <path fill-rule="evenodd" clip-rule="evenodd" d="M128.922 136.997C128.183 136.997 127.584 137.596 127.584 138.335V139.901C127.584 140.64 128.182 141.239 128.921 141.239C142.096 141.239 249.411 141.239 303.733 141.239C308.612 141.239 319.018 141.239 322.713 141.239C323.452 141.239 324.049 140.64 324.049 139.901V138.335C324.049 137.596 323.45 136.997 322.711 136.997H128.922Z" fill="#CFD3D6"/> <path fill-rule="evenodd" clip-rule="evenodd" d="M128.922 145.904C128.183 145.904 127.584 146.503 127.584 147.242V148.808C127.584 149.547 128.182 150.146 128.921 150.146C142.096 150.146 249.411 150.146 303.733 150.146C308.612 150.146 319.018 150.146 322.713 150.146C323.452 150.146 324.049 149.547 324.049 148.808V147.242C324.049 146.503 323.45 145.904 322.711 145.904H128.922Z" fill="#CFD3D6"/> <path fill-rule="evenodd" clip-rule="evenodd" d="M128.922 154.811C128.183 154.811 127.584 155.41 127.584 156.149V157.715C127.584 158.454 128.182 159.053 128.921 159.053C142.096 159.053 249.411 159.053 303.733 159.053C308.612 159.053 319.018 159.053 322.713 159.053C323.452 159.053 324.049 158.454 324.049 157.715V156.149C324.049 155.41 323.45 154.811 322.711 154.811H128.922Z" fill="#CFD3D6"/> <path fill-rule="evenodd" clip-rule="evenodd" d="M128.922 163.719C128.183 163.719 127.584 164.317 127.584 165.056V166.622C127.584 167.361 128.182 167.96 128.921 167.96C142.096 167.96 249.411 167.96 303.733 167.96C308.612 167.96 319.018 167.96 322.713 167.96C323.452 167.96 324.049 167.361 324.049 166.622V165.056C324.049 164.317 323.45 163.719 322.711 163.719H128.922Z" fill="#CFD3D6"/> <path fill-rule="evenodd" clip-rule="evenodd" d="M129.44 115.61C128.701 115.61 128.102 116.209 128.102 116.948V122.968C128.102 123.706 128.701 124.305 129.44 124.305H193.641C194.38 124.305 194.978 123.706 194.978 122.968V116.948C194.978 116.209 194.38 115.61 193.641 115.61H129.44Z" fill="#ACB2B8"/> <path fill-rule="evenodd" clip-rule="evenodd" d="M109.377 202.561C115.287 202.561 120.077 197.77 120.077 191.859C120.077 185.949 115.287 181.158 109.377 181.158C103.468 181.158 98.677 185.949 98.677 191.859C98.677 197.77 103.468 202.561 109.377 202.561Z" fill="#C5C5C5"/> <path fill-rule="evenodd" clip-rule="evenodd" d="M109.712 199.886C113.959 199.886 117.402 196.442 117.402 192.194C117.402 187.946 113.959 184.502 109.712 184.502C105.464 184.502 102.021 187.946 102.021 192.194C102.021 196.442 105.464 199.886 109.712 199.886Z" fill="#B4B4B4"/> <path fill-rule="evenodd" clip-rule="evenodd" d="M129.591 196.313C128.852 196.313 128.253 196.912 128.253 197.65V199.217C128.253 199.955 128.811 200.554 129.549 200.554C139.048 200.554 198.367 200.554 228.704 200.554C231.264 200.554 236.491 200.554 238.952 200.554C239.691 200.554 240.289 199.955 240.289 199.217V197.65C240.289 196.912 239.691 196.313 238.952 196.313H129.591Z" fill="#CFD3D6"/> <path fill-rule="evenodd" clip-rule="evenodd" d="M128.922 204.551C128.183 204.551 127.584 205.15 127.584 205.889V207.455C127.584 208.194 128.182 208.793 128.921 208.793C142.096 208.793 249.411 208.793 303.733 208.793C308.612 208.793 319.018 208.793 322.713 208.793C323.452 208.793 324.049 208.194 324.049 207.455V205.889C324.049 205.15 323.45 204.551 322.711 204.551H128.922Z" fill="#CFD3D6"/> <path fill-rule="evenodd" clip-rule="evenodd" d="M128.922 213.458C128.183 213.458 127.584 214.057 127.584 214.796V216.362C127.584 217.101 128.182 217.7 128.921 217.7C142.096 217.7 249.411 217.7 303.733 217.7C308.612 217.7 319.018 217.7 322.713 217.7C323.452 217.7 324.049 217.101 324.049 216.362V214.796C324.049 214.057 323.45 213.458 322.711 213.458H128.922Z" fill="#CFD3D6"/> <path fill-rule="evenodd" clip-rule="evenodd" d="M128.922 222.366C128.183 222.366 127.584 222.965 127.584 223.703V225.27C127.584 226.008 128.182 226.607 128.921 226.607C142.096 226.607 249.411 226.607 303.733 226.607C308.612 226.607 319.018 226.607 322.713 226.607C323.452 226.607 324.049 226.008 324.049 225.27V223.703C324.049 222.965 323.45 222.366 322.711 222.366H128.922Z" fill="#CFD3D6"/> <path fill-rule="evenodd" clip-rule="evenodd" d="M128.922 231.273C128.183 231.273 127.584 231.872 127.584 232.61V234.177C127.584 234.915 128.182 235.514 128.921 235.514C142.096 235.514 249.411 235.514 303.733 235.514C308.612 235.514 319.018 235.514 322.713 235.514C323.452 235.514 324.049 234.915 324.049 234.177V232.61C324.049 231.872 323.45 231.273 322.711 231.273H128.922Z" fill="#CFD3D6"/> <path fill-rule="evenodd" clip-rule="evenodd" d="M129.44 183.164C128.701 183.164 128.102 183.763 128.102 184.502V190.31C128.102 191.048 128.701 191.647 129.44 191.647H181.578C182.317 191.647 182.916 191.048 182.916 190.31V184.502C182.916 183.763 182.317 183.164 181.578 183.164H129.44Z" fill="#ACB2B8"/> <path fill-rule="evenodd" clip-rule="evenodd" d="M109.377 312.253C115.287 312.253 120.077 307.462 120.077 301.551C120.077 295.641 115.287 290.85 109.377 290.85C103.468 290.85 98.677 295.641 98.677 301.551C98.677 307.462 103.468 312.253 109.377 312.253Z" fill="#C5C5C5"/> <path fill-rule="evenodd" clip-rule="evenodd" d="M109.712 309.578C113.959 309.578 117.402 306.134 117.402 301.886C117.402 297.638 113.959 294.194 109.712 294.194C105.464 294.194 102.021 297.638 102.021 301.886C102.021 306.134 105.464 309.578 109.712 309.578Z" fill="#B4B4B4"/> <path fill-rule="evenodd" clip-rule="evenodd" d="M129.44 292.856C128.701 292.856 128.102 293.455 128.102 294.194V300.002C128.102 300.74 128.701 301.339 129.44 301.339H181.578C182.317 301.339 182.916 300.74 182.916 300.002V294.194C182.916 293.455 182.317 292.856 181.578 292.856H129.44Z" fill="#ACB2B8"/> <path fill-rule="evenodd" clip-rule="evenodd" d="M60.7356 41.6648V325.157H64.9658V41.6648H60.7356Z" fill="#C5C5C5"/>  
    </symbol>
    <symbol id="icon_layer3" viewBox="0 0 400 359">
       <g filter="url(#filter0_d)"> <rect x="19" y="11.6748" width="361.961" height="320.09" fill="white" fill-opacity="0.49"/> </g> <rect x="19" y="21.0066" width="361.961" height="320.09" fill="white"/> <rect opacity="0.46" x="19" y="16.3408" width="361.961" height="320.09" fill="white"/> <g filter="url(#filter1_ii)"> <path fill-rule="evenodd" clip-rule="evenodd" d="M94.1241 31.5061V223.542H305.837V31.5061H94.1241Z" fill="white"/> </g> <path d="M305.612 223.317H94.3498V31.7318H305.612V223.317Z" stroke="#979797" stroke-width="0.451364"/> <path fill-rule="evenodd" clip-rule="evenodd" d="M180.93 180.616C180.182 180.616 179.576 181.223 179.576 181.971V187.384C179.576 188.132 180.182 188.738 180.93 188.738H219.76C220.508 188.738 221.114 188.132 221.114 187.384V181.971C221.114 181.223 220.508 180.616 219.76 180.616H180.93Z" fill="#FC0000"/> <path fill-rule="evenodd" clip-rule="evenodd" d="M147.837 55.7952C147.09 55.7952 146.483 56.4014 146.483 57.1493V65.7217C146.483 66.4695 147.09 67.0758 147.837 67.0758H258.005C258.753 67.0758 259.359 66.4695 259.359 65.7217V57.1493C259.359 56.4014 258.753 55.7952 258.005 55.7952H147.837Z" fill="#C3C8CD"/> <path fill-rule="evenodd" clip-rule="evenodd" d="M131.143 77.8071C130.395 77.8071 129.789 78.4134 129.789 79.1612V81.8677C129.789 82.6156 130.395 83.2218 131.143 83.2218H268.401C269.149 83.2218 269.755 82.6156 269.755 81.8677V79.1612C269.755 78.4134 269.149 77.8071 268.401 77.8071H131.143Z" fill="#C3C8CD"/> <path fill-rule="evenodd" clip-rule="evenodd" d="M131.143 86.8318C130.395 86.8318 129.789 87.438 129.789 88.1859V90.8924C129.789 91.6402 130.395 92.2465 131.143 92.2465H268.401C269.149 92.2465 269.755 91.6402 269.755 90.8924V88.1859C269.755 87.438 269.149 86.8318 268.401 86.8318H131.143Z" fill="#C3C8CD"/> <rect x="170.007" y="130.94" width="58.6954" height="9.92693" fill="#F7F7F7"/> <rect x="170.007" y="144.928" width="58.6954" height="9.92693" fill="#F7F7F7"/> <rect x="182.198" y="159.367" width="46.5048" height="5.41469" fill="#F7F7F7"/> <rect x="182.198" y="166.135" width="46.5048" height="5.41469" fill="#F7F7F7"/> <rect x="170.007" y="159.367" width="8.57856" height="8.57326" fill="#F7F7F7"/>  
    </symbol>
    <symbol id="icon_layer4" viewBox="0 0 400 359">
       <g filter="url(#filter0_d)"> <rect x="19" y="12.1567" width="361.961" height="320.09" fill="white" fill-opacity="0.49"/> </g> <rect x="19" y="21.4885" width="361.961" height="320.09" fill="white"/> <rect opacity="0.46" x="19" y="16.8228" width="361.961" height="320.09" fill="white"/> <path d="M141.048 122.519C141.27 122.297 141.631 122.297 141.853 122.519L181.506 162.161L180.298 163.368L140.646 123.727C140.423 123.504 140.423 123.144 140.646 122.922L141.048 122.519Z" fill="#F1F1F1"/> <path d="M139.792 243.655C139.569 243.433 139.569 243.073 139.792 242.85L179.444 203.209L180.652 204.416L140.999 244.058C140.777 244.28 140.416 244.28 140.194 244.058L139.792 243.655Z" fill="#B7B7B8"/> <path d="M224.55 183.103H280.627C280.941 183.103 281.196 183.358 281.196 183.672V184.241C281.196 184.555 280.941 184.81 280.627 184.81H224.55V183.103Z" fill="#6D6C6C"/> <path fill-rule="evenodd" clip-rule="evenodd" d="M201.444 234.512C229.742 234.512 252.682 211.578 252.682 183.288C252.682 154.998 229.742 132.064 201.444 132.064C173.146 132.064 150.206 154.998 150.206 183.288C150.206 211.578 173.146 234.512 201.444 234.512Z" fill="#F1F1F1"/> <path fill-rule="evenodd" clip-rule="evenodd" d="M150.206 183.288C150.206 211.578 173.146 234.512 201.444 234.512C229.742 234.512 252.682 211.578 252.682 183.288C252.682 154.998 229.742 132.064 201.444 132.064V183.288H150.206Z" fill="#B7B7B8"/> <path opacity="0.9" fill-rule="evenodd" clip-rule="evenodd" d="M201.444 234.512C229.742 234.512 252.682 211.578 252.682 183.288C252.682 154.998 229.742 132.064 201.444 132.064V183.288V234.512Z" fill="#646363"/> <rect x="199.736" y="127.511" width="3.13122" height="111.554" fill="white"/> <rect x="202.583" y="181.581" width="2.84577" height="111.87" transform="rotate(90 202.583 181.581)" fill="white"/> <rect x="69.8415" y="101.723" width="70.5711" height="16.6988" rx="1.3509" fill="#F3F3F3"/> <rect x="69.0827" y="245.94" width="70.5711" height="16.6988" rx="1.3509" fill="#B7B7B8"/> <rect x="284.59" y="175.349" width="70.5711" height="16.6988" rx="1.3509" fill="#6D6C6C"/>  
    </symbol>
    <symbol id="icon_layer5" viewBox="0 0 400 359">
       <g filter="url(#filter0_d)"> <rect x="19" y="12" width="361.961" height="320.09" fill="white" fill-opacity="0.49"/> </g> <rect x="19" y="21.3318" width="361.961" height="320.09" fill="white"/> <rect opacity="0.46" x="19.0007" y="16.666" width="361.961" height="320.09" fill="white"/> <path d="M55.804 269.693H344.918" stroke="#D5D5D5" stroke-width="0.758932"/> <rect x="315.014" y="62.0962" width="20.8232" height="204.857" fill="#D5D5D5"/> <rect x="283.363" y="101.236" width="20.8232" height="166.134" fill="#D5D5D5"/> <rect x="251.295" y="118.307" width="20.8232" height="149.063" fill="#D5D5D5"/> <rect x="220.06" y="135.795" width="20.8232" height="131.575" fill="#D5D5D5"/> <rect x="188.409" y="152.45" width="20.8232" height="114.92" fill="#D5D5D5"/> <rect x="156.758" y="143.29" width="20.8232" height="124.08" fill="#D5D5D5"/> <rect x="125.106" y="161.194" width="20.8232" height="106.592" fill="#D5D5D5"/> <rect x="93.455" y="172.852" width="20.8232" height="94.9338" fill="#D5D5D5"/> <rect x="61.8037" y="163.276" width="20.8232" height="104.094" fill="#D5D5D5"/> <g opacity="0.5"> <path fill-rule="evenodd" clip-rule="evenodd" d="M50.8715 267.249L349.091 267.275L50.8715 267.249Z" fill="#646464"/> <path d="M50.8715 267.249L349.091 267.275" stroke="white" stroke-width="1.51786" stroke-linecap="square"/> </g> <rect x="315.014" y="120.092" width="20.8232" height="149.034" fill="#F7F7F7"/> <rect x="283.363" y="145.07" width="20.8232" height="124.056" fill="#F7F7F7"/> <rect x="251.295" y="162.554" width="20.8232" height="106.572" fill="#F7F7F7"/> <rect x="220.06" y="174.626" width="20.8232" height="94.9157" fill="#F7F7F7"/> <rect x="188.409" y="192.944" width="20.8232" height="76.1823" fill="#F7F7F7"/> <rect x="156.757" y="177.957" width="20.8232" height="91.169" fill="#F7F7F7"/> <rect x="125.106" y="192.944" width="20.8232" height="76.1823" fill="#F7F7F7"/> <rect x="93.4549" y="207.93" width="20.8232" height="61.6119" fill="#F7F7F7"/> <rect x="61.8038" y="216.465" width="20.8232" height="52.8697" fill="#F7F7F7"/>  
    </symbol></svg>