<svg xmlns="http://www.w3.org/2000/svg" style="width:0; height:0; visibility:hidden;">
    <symbol id="icon_arrow_down" viewBox="0 0 26 9">
       <path d="M1 1L13 8L25 1" stroke="white" stroke-opacity="0.4" stroke-width="0.25" fill="none"/> 
    </symbol>
    <symbol id="icon_contact_phone" viewBox="0 0 13 13">
       <path d="M6.50003 0C2.91042 0 0 2.91041 0 6.5C0 10.0895 2.91042 13 6.50003 13C10.0896 13 13 10.0895 13 6.5C13 2.91041 10.0896 0 6.50003 0ZM9.93247 9.48422L9.41203 10.0048C9.31911 10.0976 9.04703 10.1554 9.0383 10.1554C7.39184 10.1698 5.80656 9.5231 4.64178 8.35821C3.47381 7.18958 2.82634 5.59865 2.84373 3.94666C2.84373 3.94591 2.90332 3.68163 2.99615 3.58967L3.51657 3.06918C3.70701 2.87785 4.07284 2.79139 4.32911 2.87713L4.43858 2.91365C4.6941 2.9993 4.96238 3.28183 5.03298 3.54212L5.29476 4.50295C5.36536 4.76399 5.27014 5.13535 5.07975 5.3258L4.73226 5.67335C5.07343 6.93639 6.06446 7.92761 7.32773 8.26961L7.67509 7.92198C7.86642 7.73066 8.23766 7.63552 8.49813 7.70601L9.45883 7.96873C9.71917 8.04027 10.0016 8.30685 10.0873 8.56229L10.1238 8.67335C10.2087 8.92889 10.1229 9.29464 9.93247 9.48422Z" fill="#F67354"/> 
    </symbol>
    <symbol id="icon_contact_skype" viewBox="0 0 13 13">
       <path d="M12.4573 7.44108C12.5059 7.13416 12.5314 6.82016 12.5314 6.49967C12.5314 3.16853 9.83107 0.468321 6.49977 0.468321C6.18012 0.468321 5.86521 0.494646 5.55855 0.542611C5.00305 0.198904 4.34742 0 3.64479 0C1.63186 0 0 1.63161 0 3.64471C0 4.34718 0.199029 5.00225 0.542592 5.55886C0.495049 5.86629 0.468874 6.17929 0.468874 6.49979C0.468874 9.83117 3.16914 12.5306 6.49965 12.5306C6.81958 12.5306 7.13458 12.5059 7.44121 12.4575C7.99728 12.8006 8.65237 13 9.35485 13C11.3683 13 13 11.368 13 9.35493C13.0002 8.65219 12.8012 7.99727 12.4573 7.44108ZM9.36346 9.2428C9.10831 9.61011 8.73349 9.89715 8.24373 10.1035C7.75298 10.3105 7.17294 10.4135 6.5031 10.4135C5.70027 10.4135 5.03557 10.273 4.5109 9.9893C4.13899 9.78616 3.8365 9.51366 3.60395 9.17385C3.37092 8.83377 3.25277 8.50074 3.25277 8.17601C3.25277 7.98445 3.32583 7.81786 3.46803 7.68203C3.61172 7.54521 3.79679 7.47663 4.01522 7.47663C4.19415 7.47663 4.34784 7.53052 4.47297 7.6373C4.59716 7.74405 4.70135 7.89925 4.78655 8.10405C4.88868 8.3413 4.9996 8.53964 5.11763 8.69789C5.23493 8.85418 5.40002 8.98465 5.61383 9.08678C5.82528 9.18918 6.1067 9.24038 6.45885 9.24038C6.94078 9.24038 7.33026 9.13614 7.62833 8.93049C7.92792 8.72297 8.07182 8.47048 8.07182 8.1654C8.07182 7.92207 7.99423 7.72882 7.83513 7.57815C7.67457 7.42552 7.46723 7.30928 7.20993 7.22819C6.95163 7.14625 6.60483 7.05936 6.17023 6.96781C5.58666 6.84044 5.09859 6.69219 4.70334 6.52194C4.30758 6.35106 3.9924 6.11746 3.75879 5.82238C3.5247 5.5244 3.40798 5.15404 3.40798 4.71536C3.40798 4.29706 3.5312 3.92298 3.7779 3.59741C4.02447 3.27093 4.38121 3.02104 4.84637 2.84698C5.30989 2.67298 5.8556 2.58593 6.48076 2.58593C6.98071 2.58593 7.41316 2.64378 7.77921 2.75888C8.14426 2.87481 8.44857 3.02781 8.69187 3.21979C8.93364 3.41135 9.11154 3.6134 9.22422 3.82542C9.33681 4.03807 9.39351 4.24577 9.39351 4.44846C9.39351 4.6369 9.32045 4.80782 9.1781 4.95761C9.03577 5.10761 8.8537 5.18408 8.64107 5.18338C8.44938 5.18338 8.29901 5.13916 8.19474 5.04556C8.09318 4.95501 7.98652 4.81084 7.87115 4.60991C7.72532 4.32956 7.55065 4.11113 7.34754 3.9549C7.14978 3.80157 6.82351 3.72175 6.3695 3.72272C5.94944 3.72272 5.61335 3.80855 5.35967 3.97642C5.10442 4.14697 4.98241 4.34485 4.98183 4.5767C4.98226 4.72198 5.02403 4.84448 5.10808 4.94924C5.19344 5.05496 5.31219 5.14657 5.46482 5.22379C5.61752 5.30222 5.77284 5.36288 5.92892 5.40653C6.08684 5.45129 6.34886 5.516 6.71307 5.60168C7.16982 5.70012 7.58411 5.81011 7.95639 5.92998C8.32794 6.05045 8.64503 6.19573 8.90698 6.36883C9.17102 6.54141 9.3774 6.76144 9.52471 7.0272C9.67309 7.29338 9.74698 7.6185 9.74698 8.00107C9.74756 8.46175 9.61923 8.87606 9.36346 9.2428Z" fill="#F67354"/> 
    </symbol>
    <symbol id="icon_contact_whatsapp" viewBox="0 0 13 13">
       <path d="M6.50163 0H6.49837C2.91444 0 0 2.91525 0 6.5C0 7.92188 0.45825 9.23975 1.23744 10.3098L0.427375 12.7246L2.92581 11.9259C3.95362 12.6068 5.17969 13 6.50163 13C10.0856 13 13 10.0839 13 6.5C13 2.91606 10.0856 0 6.50163 0ZM10.2838 9.17881C10.127 9.62162 9.50463 9.98887 9.00819 10.0961C8.66856 10.1684 8.22494 10.2261 6.73156 9.607C4.82137 8.81563 3.59125 6.87456 3.49538 6.74862C3.40356 6.62269 2.7235 5.72081 2.7235 4.78806C2.7235 3.85531 3.19719 3.40113 3.38812 3.20613C3.54494 3.04606 3.80412 2.97294 4.05275 2.97294C4.13319 2.97294 4.2055 2.977 4.2705 2.98025C4.46144 2.98837 4.55731 2.99975 4.68325 3.30119C4.84006 3.679 5.22194 4.61175 5.26744 4.70762C5.31375 4.8035 5.36006 4.9335 5.29506 5.05944C5.23413 5.18944 5.1805 5.24712 5.08462 5.35763C4.98875 5.46812 4.89775 5.55263 4.80188 5.67125C4.71412 5.77444 4.615 5.88494 4.7255 6.07588C4.836 6.26275 5.21788 6.88594 5.78012 7.38644C6.50569 8.03237 7.09394 8.23875 7.30437 8.3265C7.46119 8.3915 7.64806 8.37606 7.76262 8.25419C7.90806 8.09737 8.08762 7.83738 8.27044 7.58144C8.40044 7.39781 8.56456 7.37506 8.73681 7.44006C8.91231 7.501 9.841 7.96006 10.0319 8.05512C10.2229 8.151 10.3488 8.1965 10.3951 8.27694C10.4406 8.35738 10.4406 8.73519 10.2838 9.17881Z" fill="#F67354"/> 
    </symbol>
    <symbol id="icon_layer1" viewBox="0 0 362 330">
       <rect width="361.961" height="320.09" fill="white" fill-opacity="0.49"/> <rect y="9.33203" width="361.961" height="320.09" fill="white"/> <rect opacity="0.46" y="4.66626" width="361.961" height="320.09" fill="white"/> <path fill-rule="evenodd" clip-rule="evenodd" d="M27.08 172.251C26.4454 172.251 25.9311 172.765 25.9311 173.4V178.079C25.9311 178.714 26.4454 179.228 27.08 179.228H337.367C338.002 179.228 338.516 178.714 338.516 178.079V173.4C338.516 172.765 338.002 172.251 337.367 172.251H27.08Z" fill="#CFD3D6"/> <path fill-rule="evenodd" clip-rule="evenodd" d="M27.08 183.691C26.4454 183.691 25.9311 184.205 25.9311 184.84V189.519C25.9311 190.154 26.4454 190.668 27.08 190.668H337.367C338.002 190.668 338.516 190.154 338.516 189.519V184.84C338.516 184.205 338.002 183.691 337.367 183.691H27.08Z" fill="#CFD3D6"/> <path fill-rule="evenodd" clip-rule="evenodd" d="M27.08 194.559C26.4454 194.559 25.9311 195.073 25.9311 195.708V200.387C25.9311 201.022 26.4454 201.536 27.08 201.536H337.367C338.002 201.536 338.516 201.022 338.516 200.387V195.708C338.516 195.073 338.002 194.559 337.367 194.559H27.08Z" fill="#CFD3D6"/> <path fill-rule="evenodd" clip-rule="evenodd" d="M27.08 205.999C26.4454 205.999 25.9311 206.514 25.9311 207.148V211.827C25.9311 212.462 26.4454 212.976 27.08 212.976H337.367C338.002 212.976 338.516 212.462 338.516 211.827V207.148C338.516 206.514 338.002 205.999 337.367 205.999H27.08Z" fill="#CFD3D6"/> <path fill-rule="evenodd" clip-rule="evenodd" d="M27.08 161.383C26.4454 161.383 25.9311 161.897 25.9311 162.532V167.211C25.9311 167.846 26.4454 168.36 27.08 168.36H337.367C338.002 168.36 338.516 167.846 338.516 167.211V162.532C338.516 161.897 338.002 161.383 337.367 161.383H27.08Z" fill="#CFD3D6"/> <path fill-rule="evenodd" clip-rule="evenodd" d="M27.0799 145.053C26.4454 145.053 25.931 145.568 25.931 146.202V153.228C25.931 153.862 26.4454 154.377 27.0799 154.377H73.2795C73.9141 154.377 74.4284 153.862 74.4284 153.228V146.202C74.4284 145.568 73.9141 145.053 73.2795 145.053H27.0799Z" fill="#ACB2B8"/> <path fill-rule="evenodd" clip-rule="evenodd" d="M27.0799 242.922C26.4454 242.922 25.931 243.436 25.931 244.071V250.945C25.931 251.579 26.4454 252.094 27.0799 252.094H109.405C110.039 252.094 110.554 251.579 110.554 250.945V244.071C110.554 243.436 110.039 242.922 109.405 242.922H27.0799Z" fill="#ACB2B8"/> <path fill-rule="evenodd" clip-rule="evenodd" d="M16.7156 51.6145C15.4465 51.6145 14.4178 52.6433 14.4178 53.9123V107.789C14.4178 109.058 15.4465 110.087 16.7156 110.087H346.004C347.274 110.087 348.302 109.058 348.302 107.789V53.9123C348.302 52.6433 347.274 51.6145 346.004 51.6145H16.7156Z" fill="#E9EFF5"/> <path fill-rule="evenodd" clip-rule="evenodd" d="M96.7352 85.3916C96.1006 85.3916 95.5862 85.906 95.5862 86.5405V91.235C95.5862 91.8695 96.1006 92.3839 96.7352 92.3839H252.072C252.707 92.3839 253.221 91.8695 253.221 91.235V86.5405C253.221 85.906 252.707 85.3916 252.072 85.3916H96.7352Z" fill="#CFD3D6"/> <path fill-rule="evenodd" clip-rule="evenodd" d="M130.362 69.2344C129.727 69.2344 129.213 69.7488 129.213 70.3833V77.4085C129.213 78.0431 129.727 78.5575 130.362 78.5575H218.542C219.177 78.5575 219.691 78.0431 219.691 77.4085V70.3833C219.691 69.7488 219.177 69.2344 218.542 69.2344H130.362Z" fill="#ACB2B8"/> 
    </symbol>
    <symbol id="icon_layer2" viewBox="0 0 362 330">
       <rect width="361.961" height="320.09" fill="white" fill-opacity="0.49"/> <rect y="9.33179" width="361.961" height="320.09" fill="white"/> <rect opacity="0.46" y="4.66602" width="361.961" height="320.09" fill="white"/> <path fill-rule="evenodd" clip-rule="evenodd" d="M90.3772 76.5122C96.2867 76.5122 101.077 71.7209 101.077 65.8105C101.077 59.9002 96.2867 55.1089 90.3772 55.1089C84.4676 55.1089 79.677 59.9002 79.677 65.8105C79.677 71.7209 84.4676 76.5122 90.3772 76.5122Z" fill="#C5C5C5"/> <path fill-rule="evenodd" clip-rule="evenodd" d="M90.7116 73.837C94.959 73.837 98.4023 70.3933 98.4023 66.1452C98.4023 61.8971 94.959 58.4534 90.7116 58.4534C86.4641 58.4534 83.0208 61.8971 83.0208 66.1452C83.0208 70.3933 86.4641 73.837 90.7116 73.837Z" fill="#B4B4B4"/> <path fill-rule="evenodd" clip-rule="evenodd" d="M110.591 70.2642C109.852 70.2642 109.253 70.863 109.253 71.6018V73.1681C109.253 73.9068 109.811 74.5057 110.549 74.5057C120.048 74.5057 179.367 74.5057 209.704 74.5057C212.263 74.5057 217.491 74.5057 219.952 74.5057C220.691 74.5057 221.289 73.9068 221.289 73.1681V71.6018C221.289 70.863 220.691 70.2642 219.952 70.2642H110.591Z" fill="#CFD3D6"/> <path fill-rule="evenodd" clip-rule="evenodd" d="M109.922 78.5024C109.183 78.5024 108.584 79.1013 108.584 79.8401V81.4063C108.584 82.1451 109.182 82.744 109.921 82.744C123.096 82.744 230.411 82.744 284.733 82.744C289.612 82.744 300.018 82.744 303.713 82.744C304.452 82.744 305.049 82.1451 305.049 81.4063V79.8401C305.049 79.1013 304.45 78.5024 303.711 78.5024H109.922Z" fill="#CFD3D6"/> <path fill-rule="evenodd" clip-rule="evenodd" d="M109.922 87.4097C109.183 87.4097 108.584 88.0085 108.584 88.7473V90.3136C108.584 91.0523 109.182 91.6512 109.921 91.6512C123.096 91.6512 230.411 91.6512 284.733 91.6512C289.612 91.6512 300.018 91.6512 303.713 91.6512C304.452 91.6512 305.049 91.0523 305.049 90.3136V88.7473C305.049 88.0085 304.45 87.4097 303.711 87.4097H109.922Z" fill="#CFD3D6"/> <path fill-rule="evenodd" clip-rule="evenodd" d="M110.44 57.1155C109.701 57.1155 109.102 57.7143 109.102 58.4531V64.473C109.102 65.2117 109.701 65.8106 110.44 65.8106H165.278C166.017 65.8106 166.616 65.2117 166.616 64.473V58.4531C166.616 57.7143 166.017 57.1155 165.278 57.1155H110.44Z" fill="#ACB2B8"/> <path fill-rule="evenodd" clip-rule="evenodd" d="M167.953 30.3613C167.215 30.3613 166.616 30.9602 166.616 31.6989V43.0696C166.616 43.8084 167.215 44.4073 167.953 44.4073H238.173C238.912 44.4073 239.511 43.8084 239.511 43.0696V31.6989C239.511 30.9602 238.912 30.3613 238.173 30.3613H167.953Z" fill="#ACB2B8"/> <path fill-rule="evenodd" clip-rule="evenodd" d="M90.3772 255.096C96.2867 255.096 101.077 250.305 101.077 244.395C101.077 238.484 96.2867 233.693 90.3772 233.693C84.4676 233.693 79.677 238.484 79.677 244.395C79.677 250.305 84.4676 255.096 90.3772 255.096Z" fill="#C5C5C5"/> <path fill-rule="evenodd" clip-rule="evenodd" d="M90.7116 252.421C94.959 252.421 98.4023 248.977 98.4023 244.729C98.4023 240.481 94.959 237.037 90.7116 237.037C86.4641 237.037 83.0208 240.481 83.0208 244.729C83.0208 248.977 86.4641 252.421 90.7116 252.421Z" fill="#B4B4B4"/> <path fill-rule="evenodd" clip-rule="evenodd" d="M110.591 248.848C109.852 248.848 109.253 249.447 109.253 250.186V251.752C109.253 252.491 109.811 253.09 110.549 253.09C120.048 253.09 179.367 253.09 209.704 253.09C212.263 253.09 217.491 253.09 219.952 253.09C220.691 253.09 221.289 252.491 221.289 251.752V250.186C221.289 249.447 220.691 248.848 219.952 248.848H110.591Z" fill="#CFD3D6"/> <path fill-rule="evenodd" clip-rule="evenodd" d="M109.922 257.086C109.183 257.086 108.584 257.685 108.584 258.424V259.99C108.584 260.729 109.182 261.328 109.921 261.328C123.096 261.328 230.411 261.328 284.733 261.328C289.612 261.328 300.018 261.328 303.713 261.328C304.452 261.328 305.049 260.729 305.049 259.99V258.424C305.049 257.685 304.45 257.086 303.711 257.086H109.922Z" fill="#CFD3D6"/> <path fill-rule="evenodd" clip-rule="evenodd" d="M109.922 265.994C109.183 265.994 108.584 266.593 108.584 267.331V268.898C108.584 269.636 109.182 270.235 109.921 270.235C123.096 270.235 230.411 270.235 284.733 270.235C289.612 270.235 300.018 270.235 303.713 270.235C304.452 270.235 305.049 269.636 305.049 268.898V267.331C305.049 266.593 304.45 265.994 303.711 265.994H109.922Z" fill="#CFD3D6"/> <path fill-rule="evenodd" clip-rule="evenodd" d="M110.44 235.699C109.701 235.699 109.102 236.298 109.102 237.037V243.057C109.102 243.795 109.701 244.394 110.44 244.394H206.741C207.48 244.394 208.079 243.795 208.079 243.057V237.037C208.079 236.298 207.48 235.699 206.741 235.699H110.44Z" fill="#ACB2B8"/> <path fill-rule="evenodd" clip-rule="evenodd" d="M90.3772 123.332C96.2867 123.332 101.077 118.541 101.077 112.63C101.077 106.72 96.2867 101.929 90.3772 101.929C84.4676 101.929 79.677 106.72 79.677 112.63C79.677 118.541 84.4676 123.332 90.3772 123.332Z" fill="#C5C5C5"/> <path fill-rule="evenodd" clip-rule="evenodd" d="M90.7116 120.657C94.959 120.657 98.4023 117.213 98.4023 112.965C98.4023 108.717 94.959 105.273 90.7116 105.273C86.4641 105.273 83.0208 108.717 83.0208 112.965C83.0208 117.213 86.4641 120.657 90.7116 120.657Z" fill="#B4B4B4"/> <path fill-rule="evenodd" clip-rule="evenodd" d="M110.591 117.084C109.852 117.084 109.253 117.683 109.253 118.421V119.988C109.253 120.726 109.811 121.325 110.549 121.325C120.048 121.325 179.367 121.325 209.704 121.325C212.263 121.325 217.491 121.325 219.952 121.325C220.691 121.325 221.289 120.726 221.289 119.988V118.421C221.289 117.683 220.691 117.084 219.952 117.084H110.591Z" fill="#CFD3D6"/> <path fill-rule="evenodd" clip-rule="evenodd" d="M109.922 125.322C109.183 125.322 108.584 125.921 108.584 126.66V128.226C108.584 128.965 109.182 129.564 109.921 129.564C123.096 129.564 230.411 129.564 284.733 129.564C289.612 129.564 300.018 129.564 303.713 129.564C304.452 129.564 305.049 128.965 305.049 128.226V126.66C305.049 125.921 304.45 125.322 303.711 125.322H109.922Z" fill="#CFD3D6"/> <path fill-rule="evenodd" clip-rule="evenodd" d="M109.922 134.229C109.183 134.229 108.584 134.828 108.584 135.567V137.133C108.584 137.872 109.182 138.471 109.921 138.471C123.096 138.471 230.411 138.471 284.733 138.471C289.612 138.471 300.018 138.471 303.713 138.471C304.452 138.471 305.049 137.872 305.049 137.133V135.567C305.049 134.828 304.45 134.229 303.711 134.229H109.922Z" fill="#CFD3D6"/> <path fill-rule="evenodd" clip-rule="evenodd" d="M109.922 143.136C109.183 143.136 108.584 143.735 108.584 144.474V146.04C108.584 146.779 109.182 147.378 109.921 147.378C123.096 147.378 230.411 147.378 284.733 147.378C289.612 147.378 300.018 147.378 303.713 147.378C304.452 147.378 305.049 146.779 305.049 146.04V144.474C305.049 143.735 304.45 143.136 303.711 143.136H109.922Z" fill="#CFD3D6"/> <path fill-rule="evenodd" clip-rule="evenodd" d="M109.922 152.044C109.183 152.044 108.584 152.643 108.584 153.381V154.948C108.584 155.686 109.182 156.285 109.921 156.285C123.096 156.285 230.411 156.285 284.733 156.285C289.612 156.285 300.018 156.285 303.713 156.285C304.452 156.285 305.049 155.686 305.049 154.948V153.381C305.049 152.643 304.45 152.044 303.711 152.044H109.922Z" fill="#CFD3D6"/> <path fill-rule="evenodd" clip-rule="evenodd" d="M110.44 103.935C109.701 103.935 109.102 104.534 109.102 105.273V111.293C109.102 112.032 109.701 112.63 110.44 112.63H174.641C175.38 112.63 175.978 112.032 175.978 111.293V105.273C175.978 104.534 175.38 103.935 174.641 103.935H110.44Z" fill="#ACB2B8"/> <path fill-rule="evenodd" clip-rule="evenodd" d="M90.3772 190.886C96.2867 190.886 101.077 186.095 101.077 180.185C101.077 174.274 96.2867 169.483 90.3772 169.483C84.4676 169.483 79.677 174.274 79.677 180.185C79.677 186.095 84.4676 190.886 90.3772 190.886Z" fill="#C5C5C5"/> <path fill-rule="evenodd" clip-rule="evenodd" d="M90.7116 188.211C94.959 188.211 98.4023 184.767 98.4023 180.519C98.4023 176.271 94.959 172.827 90.7116 172.827C86.4641 172.827 83.0208 176.271 83.0208 180.519C83.0208 184.767 86.4641 188.211 90.7116 188.211Z" fill="#B4B4B4"/> <path fill-rule="evenodd" clip-rule="evenodd" d="M110.591 184.638C109.852 184.638 109.253 185.237 109.253 185.976V187.542C109.253 188.281 109.811 188.879 110.549 188.879C120.048 188.879 179.367 188.879 209.704 188.879C212.263 188.879 217.491 188.879 219.952 188.879C220.691 188.879 221.289 188.281 221.289 187.542V185.976C221.289 185.237 220.691 184.638 219.952 184.638H110.591Z" fill="#CFD3D6"/> <path fill-rule="evenodd" clip-rule="evenodd" d="M109.922 192.876C109.183 192.876 108.584 193.475 108.584 194.214V195.78C108.584 196.519 109.182 197.118 109.921 197.118C123.096 197.118 230.411 197.118 284.733 197.118C289.612 197.118 300.018 197.118 303.713 197.118C304.452 197.118 305.049 196.519 305.049 195.78V194.214C305.049 193.475 304.45 192.876 303.711 192.876H109.922Z" fill="#CFD3D6"/> <path fill-rule="evenodd" clip-rule="evenodd" d="M109.922 201.784C109.183 201.784 108.584 202.383 108.584 203.121V204.688C108.584 205.426 109.182 206.025 109.921 206.025C123.096 206.025 230.411 206.025 284.733 206.025C289.612 206.025 300.018 206.025 303.713 206.025C304.452 206.025 305.049 205.426 305.049 204.688V203.121C305.049 202.383 304.45 201.784 303.711 201.784H109.922Z" fill="#CFD3D6"/> <path fill-rule="evenodd" clip-rule="evenodd" d="M109.922 210.691C109.183 210.691 108.584 211.29 108.584 212.029V213.595C108.584 214.334 109.182 214.932 109.921 214.932C123.096 214.932 230.411 214.932 284.733 214.932C289.612 214.932 300.018 214.932 303.713 214.932C304.452 214.932 305.049 214.334 305.049 213.595V212.029C305.049 211.29 304.45 210.691 303.711 210.691H109.922Z" fill="#CFD3D6"/> <path fill-rule="evenodd" clip-rule="evenodd" d="M109.922 219.598C109.183 219.598 108.584 220.197 108.584 220.936V222.502C108.584 223.241 109.182 223.839 109.921 223.839C123.096 223.839 230.411 223.839 284.733 223.839C289.612 223.839 300.018 223.839 303.713 223.839C304.452 223.839 305.049 223.241 305.049 222.502V220.936C305.049 220.197 304.45 219.598 303.711 219.598H109.922Z" fill="#CFD3D6"/> <path fill-rule="evenodd" clip-rule="evenodd" d="M110.44 171.49C109.701 171.49 109.102 172.088 109.102 172.827V178.635C109.102 179.374 109.701 179.973 110.44 179.973H162.578C163.317 179.973 163.916 179.374 163.916 178.635V172.827C163.916 172.088 163.317 171.49 162.578 171.49H110.44Z" fill="#ACB2B8"/> <path fill-rule="evenodd" clip-rule="evenodd" d="M90.3772 300.578C96.2867 300.578 101.077 295.787 101.077 289.876C101.077 283.966 96.2867 279.175 90.3772 279.175C84.4676 279.175 79.677 283.966 79.677 289.876C79.677 295.787 84.4676 300.578 90.3772 300.578Z" fill="#C5C5C5"/> <path fill-rule="evenodd" clip-rule="evenodd" d="M90.7116 297.903C94.959 297.903 98.4023 294.459 98.4023 290.211C98.4023 285.963 94.959 282.519 90.7116 282.519C86.4641 282.519 83.0208 285.963 83.0208 290.211C83.0208 294.459 86.4641 297.903 90.7116 297.903Z" fill="#B4B4B4"/> <path fill-rule="evenodd" clip-rule="evenodd" d="M110.44 281.181C109.701 281.181 109.102 281.78 109.102 282.519V288.327C109.102 289.066 109.701 289.664 110.44 289.664H162.578C163.317 289.664 163.916 289.066 163.916 288.327V282.519C163.916 281.78 163.317 281.181 162.578 281.181H110.44Z" fill="#ACB2B8"/> <path fill-rule="evenodd" clip-rule="evenodd" d="M41.7356 29.99V313.482H45.9658V29.99H41.7356Z" fill="#C5C5C5"/> 
    </symbol>
    <symbol id="icon_layer3" viewBox="0 0 362 330">
       <rect x="0.0387573" y="0.449951" width="361.961" height="320.09" fill="white" fill-opacity="0.49"/> <rect x="0.0387726" y="9.78174" width="361.961" height="320.09" fill="white"/> <rect opacity="0.46" x="0.0387726" y="5.11597" width="361.961" height="320.09" fill="white"/> <path fill-rule="evenodd" clip-rule="evenodd" d="M75.1629 212.317V20.2812H286.876V212.317H75.1629ZM286.425 211.866V20.7326H75.6143V211.866H286.425Z" fill="#979797"/> <path fill-rule="evenodd" clip-rule="evenodd" d="M161.969 169.392C161.221 169.392 160.615 169.998 160.615 170.746V176.16C160.615 176.907 161.221 177.514 161.969 177.514H200.799C201.547 177.514 202.153 176.907 202.153 176.16V170.746C202.153 169.998 201.547 169.392 200.799 169.392H161.969Z" fill="#FC0000"/> <path fill-rule="evenodd" clip-rule="evenodd" d="M128.876 44.5703C128.128 44.5703 127.522 45.1766 127.522 45.9244V54.4968C127.522 55.2447 128.128 55.8509 128.876 55.8509H239.044C239.792 55.8509 240.398 55.2447 240.398 54.4968V45.9244C240.398 45.1766 239.792 44.5703 239.044 44.5703H128.876Z" fill="#C3C8CD"/> <path fill-rule="evenodd" clip-rule="evenodd" d="M112.182 66.5823C111.434 66.5823 110.828 67.1885 110.828 67.9364V70.6429C110.828 71.3907 111.434 71.997 112.182 71.997H249.44C250.188 71.997 250.794 71.3907 250.794 70.6429V67.9364C250.794 67.1885 250.188 66.5823 249.44 66.5823H112.182Z" fill="#C3C8CD"/> <path fill-rule="evenodd" clip-rule="evenodd" d="M112.182 75.6069C111.434 75.6069 110.828 76.2132 110.828 76.961V79.6675C110.828 80.4154 111.434 81.0216 112.182 81.0216H249.44C250.188 81.0216 250.794 80.4154 250.794 79.6675V76.961C250.794 76.2132 250.188 75.6069 249.44 75.6069H112.182Z" fill="#C3C8CD"/> <rect x="151.046" y="119.715" width="58.6954" height="9.92693" fill="#F7F7F7"/> <rect x="151.046" y="133.703" width="58.6954" height="9.92693" fill="#F7F7F7"/> <rect x="163.236" y="148.142" width="46.5048" height="5.41469" fill="#F7F7F7"/> <rect x="163.236" y="154.91" width="46.5048" height="5.41469" fill="#F7F7F7"/> <rect x="151.046" y="148.142" width="8.57856" height="8.57326" fill="#F7F7F7"/> 
    </symbol>
    <symbol id="icon_layer4" viewBox="0 0 362 330">
       <rect width="361.961" height="320.09" fill="white" fill-opacity="0.49"/> <rect x="1.33514e-05" y="9.33179" width="361.961" height="320.09" fill="white"/> <rect opacity="0.46" x="1.33514e-05" y="4.66602" width="361.961" height="320.09" fill="white"/> <path d="M122.048 110.362C122.27 110.14 122.631 110.14 122.853 110.362L162.506 150.004L161.298 151.211L121.646 111.57C121.423 111.348 121.423 110.987 121.646 110.765L122.048 110.362Z" fill="#F1F1F1"/> <path d="M120.792 231.498C120.569 231.276 120.569 230.916 120.792 230.693L160.444 191.052L161.652 192.259L121.999 231.901C121.777 232.123 121.417 232.123 121.194 231.901L120.792 231.498Z" fill="#B7B7B8"/> <path d="M205.55 170.946H261.627C261.941 170.946 262.196 171.201 262.196 171.515V172.084C262.196 172.399 261.941 172.654 261.627 172.654H205.55V170.946Z" fill="#6D6C6C"/> <path fill-rule="evenodd" clip-rule="evenodd" d="M182.444 222.355C210.742 222.355 233.682 199.422 233.682 171.131C233.682 142.841 210.742 119.908 182.444 119.908C154.146 119.908 131.206 142.841 131.206 171.131C131.206 199.422 154.146 222.355 182.444 222.355Z" fill="#F1F1F1"/> <path fill-rule="evenodd" clip-rule="evenodd" d="M131.206 171.131C131.206 199.422 154.146 222.355 182.444 222.355C210.742 222.355 233.682 199.422 233.682 171.131C233.682 142.841 210.742 119.908 182.444 119.908V171.131H131.206Z" fill="#B7B7B8"/> <path opacity="0.9" fill-rule="evenodd" clip-rule="evenodd" d="M182.444 222.355C210.742 222.355 233.682 199.422 233.682 171.131C233.682 142.841 210.742 119.908 182.444 119.908V171.131V222.355Z" fill="#646363"/> <rect x="180.736" y="115.355" width="3.13122" height="111.554" fill="white"/> <rect x="183.583" y="169.424" width="2.84577" height="111.87" transform="rotate(90 183.583 169.424)" fill="white"/> <rect x="50.8415" y="89.5662" width="70.5711" height="16.6988" rx="1.3509" fill="#F3F3F3"/> <rect x="50.0827" y="233.783" width="70.5711" height="16.6988" rx="1.3509" fill="#B7B7B8"/> <rect x="265.59" y="163.193" width="70.5711" height="16.6988" rx="1.3509" fill="#6D6C6C"/> 
    </symbol>
    <symbol id="icon_layer5" viewBox="0 0 362 330">
       <rect width="361.961" height="320.09" fill="white" fill-opacity="0.49"/> <rect y="9.33179" width="361.961" height="320.09" fill="white"/> <rect opacity="0.46" x="0.000732422" y="4.66602" width="361.961" height="320.09" fill="white"/> <path d="M36.8039 257.693H325.918" stroke="#D5D5D5" stroke-width="0.758932"/> <rect x="296.014" y="50.0962" width="20.8232" height="204.857" fill="#D5D5D5"/> <rect x="264.363" y="89.2356" width="20.8232" height="166.134" fill="#D5D5D5"/> <rect x="232.295" y="106.307" width="20.8232" height="149.063" fill="#D5D5D5"/> <rect x="201.06" y="123.795" width="20.8232" height="131.575" fill="#D5D5D5"/> <rect x="169.409" y="140.45" width="20.8232" height="114.92" fill="#D5D5D5"/> <rect x="137.758" y="131.29" width="20.8232" height="124.08" fill="#D5D5D5"/> <rect x="106.106" y="149.194" width="20.8232" height="106.592" fill="#D5D5D5"/> <rect x="74.4549" y="160.852" width="20.8232" height="94.9338" fill="#D5D5D5"/> <rect x="42.8037" y="151.276" width="20.8232" height="104.094" fill="#D5D5D5"/> <g opacity="0.5"> <path fill-rule="evenodd" clip-rule="evenodd" d="M31.8715 255.249L330.091 255.275L31.8715 255.249Z" fill="#646464"/> <path d="M31.8715 255.249L330.091 255.275" stroke="white" stroke-width="1.51786" stroke-linecap="square"/> </g> <rect x="296.014" y="108.092" width="20.8232" height="149.034" fill="#F7F7F7"/> <rect x="264.363" y="133.07" width="20.8232" height="124.056" fill="#F7F7F7"/> <rect x="232.295" y="150.554" width="20.8232" height="106.572" fill="#F7F7F7"/> <rect x="201.06" y="162.626" width="20.8232" height="94.9157" fill="#F7F7F7"/> <rect x="169.409" y="180.944" width="20.8232" height="76.1823" fill="#F7F7F7"/> <rect x="137.757" y="165.957" width="20.8232" height="91.169" fill="#F7F7F7"/> <rect x="106.106" y="180.944" width="20.8232" height="76.1823" fill="#F7F7F7"/> <rect x="74.4549" y="195.93" width="20.8232" height="61.6119" fill="#F7F7F7"/> <rect x="42.8038" y="204.465" width="20.8232" height="52.8697" fill="#F7F7F7"/> 
    </symbol>
    <symbol id="icon_notebook" viewBox="0 0 91 58">
       <path d="M8.69517 52.6394H82.3048C83.8278 52.6394 85.0652 51.4059 85.0652 49.8896V2.74982C85.0652 1.23349 83.8278 0 82.3048 0H8.69517C7.17302 0 5.9348 1.23349 5.9348 2.74982V49.8896C5.9348 51.4059 7.17381 52.6394 8.69517 52.6394ZM8.30083 2.74982C8.30083 2.53298 8.4775 2.35699 8.69517 2.35699H82.3048C82.5225 2.35699 82.6992 2.53298 82.6992 2.74982V49.8896C82.6992 50.1064 82.5225 50.2824 82.3048 50.2824H8.69517C8.4775 50.2824 8.30083 50.1064 8.30083 49.8896V2.74982ZM91 54.7434V56.9441C91 57.527 90.5252 58 89.94 58H1.05998C0.474784 58 0 57.527 0 56.9441V54.7434H37.3731C37.5576 55.357 38.1223 55.8072 38.7982 55.8072H52.2026C52.8777 55.8072 53.4424 55.3578 53.6277 54.7434H91Z" fill="#2D2D2D"/> 
    </symbol>
    <symbol id="icon_phone" viewBox="0 0 19 39">
       <path d="M16.2857 0C16.9963 9.06977e-05 17.703 0.292772 18.2055 0.796416C18.7079 1.30006 18.9999 2.00859 19 2.72093V36.2791C18.9999 36.9914 18.7079 37.6998 18.2055 38.2036C17.7031 38.7072 16.9963 38.9999 16.2857 39H2.71428C2.00368 38.9999 1.29698 38.7072 0.794472 38.2036C0.292057 37.6998 8.96454e-05 36.9914 0 36.2791V2.72093C8.96454e-05 2.00859 0.292057 1.30015 0.794472 0.796416C1.29689 0.292772 2.00368 9.06977e-05 2.71428 0H16.2857ZM10.9222 1.81395C10.9156 1.81377 10.909 1.81377 10.9024 1.81395C10.8873 1.81323 10.8723 1.81323 10.8571 1.81395H8.14286C7.89305 1.81042 7.68758 2.01059 7.68405 2.261C7.68052 2.51142 7.88021 2.71739 8.13001 2.72093C8.13426 2.72102 8.13851 2.72102 8.14277 2.72093H10.8571C11.1069 2.73871 11.3238 2.55015 11.3416 2.29964C11.3595 2.0494 11.1717 1.83209 10.9222 1.81395ZM18.0952 4.53488H0.904762V34.0116H18.0952V4.53488ZM9.5 34.9186C8.75049 34.9186 8.14286 35.5277 8.14286 36.2791C8.14286 37.0304 8.75049 37.6395 9.5 37.6395C10.2495 37.6395 10.8571 37.0304 10.8571 36.2791C10.8571 35.5276 10.2495 34.9186 9.5 34.9186Z" fill="#2D2D2D"/> 
    </symbol>
    <symbol id="icon_stages_arrow" viewBox="0 0 26 9">
       <path d="M1 1L13 8L25 1" stroke="white" stroke-width="0.25"/> 
    </symbol>
    <symbol id="icon_tablet" viewBox="0 0 39 58">
       <path d="M37.3862 0H1.61379C0.722979 0 0 0.724595 0 1.6186V56.3814C0 57.2754 0.722979 58 1.61379 58H37.3862C38.277 58 39 57.2754 39 56.3814V1.6186C39 0.724595 38.277 0 37.3862 0ZM19.5 55.9767C18.7571 55.9767 18.1552 55.373 18.1552 54.6279C18.1552 53.8828 18.7571 53.2791 19.5 53.2791C20.2429 53.2791 20.8448 53.8828 20.8448 54.6279C20.8448 55.373 20.2429 55.9767 19.5 55.9767ZM37.0274 52.0198H1.97259V3.82153H37.0274V52.0198Z" fill="#2D2D2D"/> 
    </symbol>
    <symbol id="icon_user" viewBox="0 0 23 23">
       <path d="M19.6332 3.36445C15.1489 -1.12148 7.85222 -1.12148 3.36791 3.36445C1.79455 4.93835 0.718311 6.91566 0.255439 9.08269C-0.195185 11.1927 -0.0475776 13.3789 0.682267 15.4047C0.769957 15.6479 1.03826 15.774 1.28136 15.6864C1.52461 15.5987 1.65069 15.3304 1.563 15.0871C0.892443 13.2259 0.756851 11.2172 1.17096 9.27826C1.59592 7.28847 2.58454 5.4724 4.02988 4.02657C8.14923 -0.0941984 14.8519 -0.0941984 18.9712 4.02657C20.9329 5.98905 22.0311 8.59765 22.0633 11.372C22.0955 14.1413 21.0638 16.7707 19.1585 18.7758C19.1359 18.7996 19.1136 18.8234 19.0913 18.8473C19.0518 18.8895 19.0124 18.9318 18.9712 18.973C14.8519 23.0938 8.14923 23.0938 4.02988 18.973C4.00796 18.9511 3.98658 18.9288 3.96544 18.9065C3.96434 18.8632 3.96341 18.8206 3.96341 18.7786C3.96341 18.6844 3.9652 18.5905 3.96863 18.4969C3.96981 18.4656 3.97215 18.4346 3.97371 18.4034C3.97675 18.3412 3.97964 18.279 3.98416 18.2171C3.98689 18.1802 3.99087 18.1437 3.99415 18.1069C3.99906 18.0511 4.00366 17.9953 4.00975 17.9398C4.01404 17.9006 4.01966 17.8618 4.02457 17.8228C4.0312 17.7701 4.03752 17.7172 4.04533 17.6648C4.05125 17.6248 4.05828 17.5853 4.06483 17.5456C4.07318 17.4944 4.08129 17.4433 4.09073 17.3925C4.09814 17.3523 4.10665 17.3125 4.11476 17.2726C4.12482 17.2227 4.13473 17.1727 4.14581 17.1232C4.15478 17.083 4.16477 17.043 4.17436 17.0031C4.18607 16.9543 4.19769 16.9055 4.21033 16.8571C4.22086 16.817 4.23225 16.7772 4.24333 16.7373C4.25667 16.6896 4.26993 16.6417 4.28421 16.5943C4.29615 16.5545 4.30894 16.515 4.32158 16.4755C4.33656 16.4286 4.35154 16.3816 4.36738 16.3351C4.3808 16.2958 4.39484 16.2568 4.40888 16.2178C4.4255 16.1716 4.44219 16.1254 4.45967 16.0795C4.47449 16.0407 4.48986 16.0023 4.50531 15.9638C4.52349 15.9185 4.54182 15.8732 4.56086 15.8282C4.57709 15.79 4.59378 15.752 4.61063 15.7141C4.63037 15.6695 4.65034 15.6251 4.67094 15.581C4.68849 15.5435 4.70644 15.5062 4.72461 15.469C4.74599 15.4252 4.7676 15.3815 4.78976 15.3382C4.80856 15.3015 4.82767 15.265 4.8471 15.2286C4.87004 15.1855 4.89336 15.1426 4.91716 15.0999C4.93721 15.064 4.95749 15.0283 4.97809 14.9928C5.00259 14.9505 5.02747 14.9085 5.05283 14.8667C5.07413 14.8316 5.09566 14.7966 5.11751 14.7618C5.14356 14.7205 5.17001 14.6793 5.19685 14.6385C5.21932 14.6043 5.24194 14.5701 5.26496 14.5363C5.2925 14.4957 5.32066 14.4556 5.34906 14.4155C5.3727 14.3822 5.39634 14.349 5.42052 14.3161C5.44962 14.2765 5.47935 14.2372 5.50923 14.1982C5.53396 14.1659 5.55861 14.1336 5.58389 14.1017C5.61455 14.0629 5.64591 14.0245 5.67735 13.9864C5.70302 13.9552 5.72869 13.924 5.7549 13.8931C5.7872 13.8552 5.8202 13.8178 5.85328 13.7805C5.87996 13.7504 5.90649 13.7202 5.93364 13.6905C5.9675 13.6535 6.00206 13.6172 6.0367 13.5809C6.06431 13.5519 6.09178 13.5228 6.11986 13.4942C6.15536 13.4581 6.19164 13.4228 6.22784 13.3874C6.25624 13.3597 6.2844 13.3317 6.31326 13.3044C6.35056 13.2691 6.38871 13.2347 6.4267 13.2002C6.45572 13.1739 6.48436 13.1473 6.51377 13.1214C6.55301 13.0868 6.59327 13.0532 6.63329 13.0194C6.66262 12.9947 6.69165 12.9696 6.72137 12.9452C6.7628 12.9113 6.80524 12.8785 6.84752 12.8454C6.87701 12.8224 6.90603 12.7988 6.93584 12.7762C6.98038 12.7424 7.02587 12.7098 7.07127 12.677C7.09991 12.6562 7.12799 12.635 7.15701 12.6146C7.2071 12.5794 7.25836 12.5455 7.30946 12.5114C7.33466 12.4946 7.35931 12.4772 7.38467 12.4606C7.45129 12.4173 7.51909 12.3754 7.58735 12.3341C7.59796 12.3277 7.60826 12.3208 7.61895 12.3144C7.6979 12.2671 7.77795 12.2212 7.85893 12.1766C7.88662 12.1613 7.9151 12.1471 7.94311 12.1322C7.99686 12.1034 8.05046 12.0745 8.10515 12.047C8.14018 12.0294 8.17607 12.0128 8.21141 11.9957C8.25603 11.9741 8.3005 11.9523 8.34567 11.9314C9.1941 12.7421 10.3259 13.2011 11.5007 13.2011C12.6754 13.2011 13.8073 12.7421 14.6557 11.9313C16.3119 12.698 17.6675 14.0739 18.4034 15.747C18.5075 15.9836 18.7836 16.0912 19.0204 15.987C19.257 15.8828 19.3644 15.6065 19.2603 15.3699C18.4553 13.5397 17.0539 12.0773 15.28 11.1945C15.7947 10.4392 16.0731 9.54743 16.0731 8.62715C16.0731 6.10502 14.0219 4.0531 11.5007 4.0531C11.2422 4.0531 11.0326 4.26281 11.0326 4.52136C11.0326 4.77992 11.2422 4.98962 11.5007 4.98962C13.5058 4.98962 15.1369 6.62143 15.1369 8.62715C15.1369 9.52402 14.8037 10.3876 14.1988 11.0587C14.1987 11.0588 14.1986 11.0589 14.1986 11.059C13.5078 11.8252 12.5245 12.2647 11.5006 12.2647C10.4767 12.2647 9.4933 11.8252 8.80262 11.059C8.80254 11.0588 8.80238 11.0587 8.80223 11.0587C8.19736 10.3873 7.86423 9.52394 7.86423 8.62722C7.86423 7.64825 8.24737 6.72983 8.94312 6.04134C9.12693 5.85942 9.12849 5.56293 8.94664 5.37914C8.76486 5.19519 8.46847 5.19379 8.28467 5.37555C7.40987 6.24105 6.92804 7.39586 6.92804 8.62691C6.92804 9.54626 7.20577 10.4374 7.71959 11.1923C7.71499 11.1945 7.71054 11.197 7.70602 11.1994C7.6695 11.2176 7.63385 11.237 7.59765 11.2556C7.54218 11.2844 7.48656 11.3129 7.43187 11.3428C7.39317 11.3639 7.35533 11.3861 7.31703 11.4077C7.26593 11.4366 7.21475 11.4654 7.16435 11.4953C7.12526 11.5186 7.0868 11.5426 7.0481 11.5664C6.99973 11.5962 6.95136 11.626 6.90369 11.6566C6.86476 11.6817 6.82654 11.7074 6.78807 11.733C6.74181 11.7639 6.69562 11.7948 6.65006 11.8265C6.61176 11.8532 6.57392 11.8805 6.53608 11.9077C6.49161 11.9398 6.4473 11.972 6.40353 12.0049C6.366 12.033 6.32895 12.0616 6.29197 12.0903C6.24906 12.1236 6.20646 12.1572 6.16433 12.1913C6.12782 12.2208 6.09162 12.2507 6.05558 12.2807C6.01415 12.3154 5.97304 12.3504 5.93231 12.3859C5.89697 12.4165 5.86186 12.4474 5.82707 12.4787C5.78689 12.5149 5.74726 12.5514 5.70786 12.5882C5.67384 12.62 5.6399 12.6518 5.60636 12.6842C5.56743 12.7218 5.52912 12.76 5.49089 12.7983C5.45828 12.831 5.42567 12.8637 5.39368 12.8968C5.35585 12.9361 5.31871 12.976 5.28165 13.016C5.25068 13.0494 5.21947 13.0826 5.18905 13.1166C5.15199 13.1578 5.11595 13.1999 5.07975 13.2418C5.05065 13.2755 5.02131 13.3089 4.99276 13.343C4.95601 13.3869 4.92044 13.4317 4.88463 13.4764C4.85802 13.5096 4.83087 13.5424 4.80474 13.576C4.76713 13.6244 4.73078 13.6737 4.69427 13.7229C4.67133 13.7538 4.64777 13.7842 4.6253 13.8154C4.57911 13.8794 4.53441 13.9443 4.4901 14.0096C4.47847 14.0267 4.46615 14.0434 4.4546 14.0607C4.39944 14.1431 4.34584 14.2264 4.29365 14.3107C4.27563 14.3398 4.2587 14.3696 4.24107 14.3988C4.20729 14.455 4.17335 14.511 4.14082 14.5679C4.12053 14.6034 4.10134 14.6395 4.0816 14.6754C4.05313 14.7269 4.02449 14.7782 3.99719 14.8303C3.9769 14.869 3.95771 14.9081 3.93797 14.947C3.91254 14.9973 3.88703 15.0475 3.86261 15.0983C3.84318 15.1387 3.82469 15.1796 3.80589 15.2202C3.7828 15.2704 3.75963 15.3205 3.73747 15.3712C3.71922 15.4129 3.70174 15.4551 3.68419 15.4971C3.66304 15.5476 3.64206 15.5981 3.62193 15.649C3.605 15.6918 3.58877 15.7348 3.57255 15.7778C3.55335 15.8288 3.53439 15.8799 3.51614 15.9314C3.50069 15.975 3.48571 16.0189 3.47089 16.0628C3.45349 16.1144 3.43656 16.1661 3.42018 16.2182C3.40621 16.2624 3.39272 16.3068 3.37945 16.3513C3.36385 16.4039 3.34879 16.4565 3.3342 16.5094C3.32188 16.5541 3.30979 16.5988 3.29816 16.6438C3.28435 16.6972 3.27125 16.7509 3.25845 16.8048C3.24776 16.8497 3.23715 16.8946 3.22724 16.9397C3.21523 16.9943 3.20407 17.0491 3.19315 17.1041C3.18418 17.149 3.17505 17.194 3.16678 17.2392C3.15656 17.2952 3.14735 17.3515 3.13823 17.408C3.13105 17.4524 3.12348 17.4969 3.11701 17.5415C3.1085 17.5997 3.10133 17.6582 3.09399 17.7168C3.08861 17.7602 3.08268 17.8035 3.07792 17.847C3.07121 17.9084 3.06606 17.9701 3.06068 18.0318C3.05709 18.073 3.0528 18.1139 3.04983 18.1553C3.04484 18.2242 3.04156 18.2934 3.03821 18.3627C3.03657 18.3972 3.034 18.4313 3.03275 18.4658C3.029 18.5698 3.0269 18.6741 3.0269 18.7789C3.0269 18.892 3.03072 18.9989 3.03532 19.117C3.03642 19.1443 3.04024 19.1708 3.0457 19.1967C3.04617 19.1987 3.0464 19.2008 3.04687 19.2028C3.05264 19.2283 3.06076 19.2528 3.07051 19.2766C3.07144 19.2789 3.0723 19.2812 3.07332 19.2836C3.08338 19.307 3.0954 19.3293 3.10897 19.3505C3.11069 19.3532 3.11233 19.3558 3.11404 19.3584C3.12801 19.3793 3.14353 19.3988 3.16046 19.4171C3.16171 19.4184 3.16257 19.4201 3.16382 19.4214L3.22561 19.4872C3.27226 19.5371 3.31891 19.5869 3.3676 19.6356C5.60979 21.8785 8.55499 23 11.5003 23C14.4456 23 17.3908 21.8785 19.6329 19.6356C19.6816 19.5869 19.7283 19.5371 19.7749 19.4872L19.8367 19.4214C21.9111 17.2385 23.0342 14.3761 22.9992 11.3615C22.9643 8.34081 21.7688 5.50081 19.6332 3.36445Z" fill="currentColor"/> 
    </symbol></svg>