<svg width="13" height="13" viewBox="0 0 13 13" fill="none" xmlns="http://www.w3.org/2000/svg">
<path d="M6.50003 0C2.91042 0 0 2.91041 0 6.5C0 10.0895 2.91042 13 6.50003 13C10.0896 13 13 10.0895 13 6.5C13 2.91041 10.0896 0 6.50003 0ZM9.93247 9.48422L9.41203 10.0048C9.31911 10.0976 9.04703 10.1554 9.0383 10.1554C7.39184 10.1698 5.80656 9.5231 4.64178 8.35821C3.47381 7.18958 2.82634 5.59865 2.84373 3.94666C2.84373 3.94591 2.90332 3.68163 2.99615 3.58967L3.51657 3.06918C3.70701 2.87785 4.07284 2.79139 4.32911 2.87713L4.43858 2.91365C4.6941 2.9993 4.96238 3.28183 5.03298 3.54212L5.29476 4.50295C5.36536 4.76399 5.27014 5.13535 5.07975 5.3258L4.73226 5.67335C5.07343 6.93639 6.06446 7.92761 7.32773 8.26961L7.67509 7.92198C7.86642 7.73066 8.23766 7.63552 8.49813 7.70601L9.45883 7.96873C9.71917 8.04027 10.0016 8.30685 10.0873 8.56229L10.1238 8.67335C10.2087 8.92889 10.1229 9.29464 9.93247 9.48422Z" fill="#F67354"/>
</svg>
