<svg width="13" height="13" viewBox="0 0 13 13" fill="none" xmlns="http://www.w3.org/2000/svg">
<path d="M12.4573 7.44108C12.5059 7.13416 12.5314 6.82016 12.5314 6.49967C12.5314 3.16853 9.83107 0.468321 6.49977 0.468321C6.18012 0.468321 5.86521 0.494646 5.55855 0.542611C5.00305 0.198904 4.34742 0 3.64479 0C1.63186 0 0 1.63161 0 3.64471C0 4.34718 0.199029 5.00225 0.542592 5.55886C0.495049 5.86629 0.468874 6.17929 0.468874 6.49979C0.468874 9.83117 3.16914 12.5306 6.49965 12.5306C6.81958 12.5306 7.13458 12.5059 7.44121 12.4575C7.99728 12.8006 8.65237 13 9.35485 13C11.3683 13 13 11.368 13 9.35493C13.0002 8.65219 12.8012 7.99727 12.4573 7.44108ZM9.36346 9.2428C9.10831 9.61011 8.73349 9.89715 8.24373 10.1035C7.75298 10.3105 7.17294 10.4135 6.5031 10.4135C5.70027 10.4135 5.03557 10.273 4.5109 9.9893C4.13899 9.78616 3.8365 9.51366 3.60395 9.17385C3.37092 8.83377 3.25277 8.50074 3.25277 8.17601C3.25277 7.98445 3.32583 7.81786 3.46803 7.68203C3.61172 7.54521 3.79679 7.47663 4.01522 7.47663C4.19415 7.47663 4.34784 7.53052 4.47297 7.6373C4.59716 7.74405 4.70135 7.89925 4.78655 8.10405C4.88868 8.3413 4.9996 8.53964 5.11763 8.69789C5.23493 8.85418 5.40002 8.98465 5.61383 9.08678C5.82528 9.18918 6.1067 9.24038 6.45885 9.24038C6.94078 9.24038 7.33026 9.13614 7.62833 8.93049C7.92792 8.72297 8.07182 8.47048 8.07182 8.1654C8.07182 7.92207 7.99423 7.72882 7.83513 7.57815C7.67457 7.42552 7.46723 7.30928 7.20993 7.22819C6.95163 7.14625 6.60483 7.05936 6.17023 6.96781C5.58666 6.84044 5.09859 6.69219 4.70334 6.52194C4.30758 6.35106 3.9924 6.11746 3.75879 5.82238C3.5247 5.5244 3.40798 5.15404 3.40798 4.71536C3.40798 4.29706 3.5312 3.92298 3.7779 3.59741C4.02447 3.27093 4.38121 3.02104 4.84637 2.84698C5.30989 2.67298 5.8556 2.58593 6.48076 2.58593C6.98071 2.58593 7.41316 2.64378 7.77921 2.75888C8.14426 2.87481 8.44857 3.02781 8.69187 3.21979C8.93364 3.41135 9.11154 3.6134 9.22422 3.82542C9.33681 4.03807 9.39351 4.24577 9.39351 4.44846C9.39351 4.6369 9.32045 4.80782 9.1781 4.95761C9.03577 5.10761 8.8537 5.18408 8.64107 5.18338C8.44938 5.18338 8.29901 5.13916 8.19474 5.04556C8.09318 4.95501 7.98652 4.81084 7.87115 4.60991C7.72532 4.32956 7.55065 4.11113 7.34754 3.9549C7.14978 3.80157 6.82351 3.72175 6.3695 3.72272C5.94944 3.72272 5.61335 3.80855 5.35967 3.97642C5.10442 4.14697 4.98241 4.34485 4.98183 4.5767C4.98226 4.72198 5.02403 4.84448 5.10808 4.94924C5.19344 5.05496 5.31219 5.14657 5.46482 5.22379C5.61752 5.30222 5.77284 5.36288 5.92892 5.40653C6.08684 5.45129 6.34886 5.516 6.71307 5.60168C7.16982 5.70012 7.58411 5.81011 7.95639 5.92998C8.32794 6.05045 8.64503 6.19573 8.90698 6.36883C9.17102 6.54141 9.3774 6.76144 9.52471 7.0272C9.67309 7.29338 9.74698 7.6185 9.74698 8.00107C9.74756 8.46175 9.61923 8.87606 9.36346 9.2428Z" fill="#F67354"/>
</svg>
