<svg width="400" height="359" viewBox="0 0 400 359" fill="none" xmlns="http://www.w3.org/2000/svg">
<g filter="url(#filter0_d)">
<rect x="19" y="11.6748" width="361.961" height="320.09" fill="white" fill-opacity="0.49"/>
</g>
<rect x="19" y="21.0066" width="361.961" height="320.09" fill="white"/>
<rect opacity="0.46" x="19" y="16.3408" width="361.961" height="320.09" fill="white"/>
<path fill-rule="evenodd" clip-rule="evenodd" d="M109.377 88.187C115.287 88.187 120.077 83.3957 120.077 77.4853C120.077 71.575 115.287 66.7837 109.377 66.7837C103.468 66.7837 98.677 71.575 98.677 77.4853C98.677 83.3957 103.468 88.187 109.377 88.187Z" fill="#C5C5C5"/>
<path fill-rule="evenodd" clip-rule="evenodd" d="M109.712 85.5118C113.959 85.5118 117.402 82.0681 117.402 77.82C117.402 73.5719 113.959 70.1282 109.712 70.1282C105.464 70.1282 102.021 73.5719 102.021 77.82C102.021 82.0681 105.464 85.5118 109.712 85.5118Z" fill="#B4B4B4"/>
<path fill-rule="evenodd" clip-rule="evenodd" d="M129.591 81.939C128.852 81.939 128.253 82.5378 128.253 83.2766V84.8429C128.253 85.5816 128.811 86.1805 129.549 86.1805C139.048 86.1805 198.367 86.1805 228.704 86.1805C231.264 86.1805 236.491 86.1805 238.952 86.1805C239.691 86.1805 240.289 85.5816 240.289 84.8429V83.2766C240.289 82.5378 239.691 81.939 238.952 81.939H129.591Z" fill="#CFD3D6"/>
<path fill-rule="evenodd" clip-rule="evenodd" d="M128.922 90.1772C128.183 90.1772 127.584 90.7761 127.584 91.5149V93.0811C127.584 93.8199 128.182 94.4188 128.921 94.4188C142.096 94.4188 249.411 94.4188 303.733 94.4188C308.612 94.4188 319.018 94.4188 322.713 94.4188C323.452 94.4188 324.049 93.8199 324.049 93.0811V91.5149C324.049 90.7761 323.45 90.1772 322.711 90.1772H128.922Z" fill="#CFD3D6"/>
<path fill-rule="evenodd" clip-rule="evenodd" d="M128.922 99.0845C128.183 99.0845 127.584 99.6833 127.584 100.422V101.988C127.584 102.727 128.182 103.326 128.921 103.326C142.096 103.326 249.411 103.326 303.733 103.326C308.612 103.326 319.018 103.326 322.713 103.326C323.452 103.326 324.049 102.727 324.049 101.988V100.422C324.049 99.6833 323.45 99.0845 322.711 99.0845H128.922Z" fill="#CFD3D6"/>
<path fill-rule="evenodd" clip-rule="evenodd" d="M129.44 68.7903C128.701 68.7903 128.102 69.3892 128.102 70.1279V76.1478C128.102 76.8865 128.701 77.4854 129.44 77.4854H184.278C185.017 77.4854 185.616 76.8865 185.616 76.1478V70.1279C185.616 69.3892 185.017 68.7903 184.278 68.7903H129.44Z" fill="#ACB2B8"/>
<path fill-rule="evenodd" clip-rule="evenodd" d="M186.953 42.0361C186.215 42.0361 185.616 42.635 185.616 43.3737V54.7444C185.616 55.4832 186.215 56.0821 186.953 56.0821H257.173C257.912 56.0821 258.511 55.4832 258.511 54.7444V43.3737C258.511 42.635 257.912 42.0361 257.173 42.0361H186.953Z" fill="#ACB2B8"/>
<path fill-rule="evenodd" clip-rule="evenodd" d="M109.377 266.771C115.287 266.771 120.077 261.98 120.077 256.069C120.077 250.159 115.287 245.368 109.377 245.368C103.468 245.368 98.677 250.159 98.677 256.069C98.677 261.98 103.468 266.771 109.377 266.771Z" fill="#C5C5C5"/>
<path fill-rule="evenodd" clip-rule="evenodd" d="M109.712 264.096C113.959 264.096 117.402 260.652 117.402 256.404C117.402 252.156 113.959 248.712 109.712 248.712C105.464 248.712 102.021 252.156 102.021 256.404C102.021 260.652 105.464 264.096 109.712 264.096Z" fill="#B4B4B4"/>
<path fill-rule="evenodd" clip-rule="evenodd" d="M129.591 260.523C128.852 260.523 128.253 261.122 128.253 261.861V263.427C128.253 264.166 128.811 264.764 129.549 264.764C139.048 264.764 198.367 264.764 228.704 264.764C231.264 264.764 236.491 264.764 238.952 264.764C239.691 264.764 240.289 264.166 240.289 263.427V261.861C240.289 261.122 239.691 260.523 238.952 260.523H129.591Z" fill="#CFD3D6"/>
<path fill-rule="evenodd" clip-rule="evenodd" d="M128.922 268.761C128.183 268.761 127.584 269.36 127.584 270.099V271.665C127.584 272.404 128.182 273.003 128.921 273.003C142.096 273.003 249.411 273.003 303.733 273.003C308.612 273.003 319.018 273.003 322.713 273.003C323.452 273.003 324.049 272.404 324.049 271.665V270.099C324.049 269.36 323.45 268.761 322.711 268.761H128.922Z" fill="#CFD3D6"/>
<path fill-rule="evenodd" clip-rule="evenodd" d="M128.922 277.668C128.183 277.668 127.584 278.267 127.584 279.006V280.572C127.584 281.311 128.182 281.91 128.921 281.91C142.096 281.91 249.411 281.91 303.733 281.91C308.612 281.91 319.018 281.91 322.713 281.91C323.452 281.91 324.049 281.311 324.049 280.572V279.006C324.049 278.267 323.45 277.668 322.711 277.668H128.922Z" fill="#CFD3D6"/>
<path fill-rule="evenodd" clip-rule="evenodd" d="M129.44 247.374C128.701 247.374 128.102 247.973 128.102 248.712V254.732C128.102 255.47 128.701 256.069 129.44 256.069H225.741C226.48 256.069 227.079 255.47 227.079 254.732V248.712C227.079 247.973 226.48 247.374 225.741 247.374H129.44Z" fill="#ACB2B8"/>
<path fill-rule="evenodd" clip-rule="evenodd" d="M109.377 135.007C115.287 135.007 120.077 130.216 120.077 124.305C120.077 118.395 115.287 113.604 109.377 113.604C103.468 113.604 98.677 118.395 98.677 124.305C98.677 130.216 103.468 135.007 109.377 135.007Z" fill="#C5C5C5"/>
<path fill-rule="evenodd" clip-rule="evenodd" d="M109.712 132.331C113.959 132.331 117.402 128.888 117.402 124.64C117.402 120.391 113.959 116.948 109.712 116.948C105.464 116.948 102.021 120.391 102.021 124.64C102.021 128.888 105.464 132.331 109.712 132.331Z" fill="#B4B4B4"/>
<path fill-rule="evenodd" clip-rule="evenodd" d="M129.591 128.759C128.852 128.759 128.253 129.357 128.253 130.096V131.662C128.253 132.401 128.811 133 129.549 133C139.048 133 198.367 133 228.704 133C231.264 133 236.491 133 238.952 133C239.691 133 240.289 132.401 240.289 131.662V130.096C240.289 129.357 239.691 128.759 238.952 128.759H129.591Z" fill="#CFD3D6"/>
<path fill-rule="evenodd" clip-rule="evenodd" d="M128.922 136.997C128.183 136.997 127.584 137.596 127.584 138.335V139.901C127.584 140.64 128.182 141.239 128.921 141.239C142.096 141.239 249.411 141.239 303.733 141.239C308.612 141.239 319.018 141.239 322.713 141.239C323.452 141.239 324.049 140.64 324.049 139.901V138.335C324.049 137.596 323.45 136.997 322.711 136.997H128.922Z" fill="#CFD3D6"/>
<path fill-rule="evenodd" clip-rule="evenodd" d="M128.922 145.904C128.183 145.904 127.584 146.503 127.584 147.242V148.808C127.584 149.547 128.182 150.146 128.921 150.146C142.096 150.146 249.411 150.146 303.733 150.146C308.612 150.146 319.018 150.146 322.713 150.146C323.452 150.146 324.049 149.547 324.049 148.808V147.242C324.049 146.503 323.45 145.904 322.711 145.904H128.922Z" fill="#CFD3D6"/>
<path fill-rule="evenodd" clip-rule="evenodd" d="M128.922 154.811C128.183 154.811 127.584 155.41 127.584 156.149V157.715C127.584 158.454 128.182 159.053 128.921 159.053C142.096 159.053 249.411 159.053 303.733 159.053C308.612 159.053 319.018 159.053 322.713 159.053C323.452 159.053 324.049 158.454 324.049 157.715V156.149C324.049 155.41 323.45 154.811 322.711 154.811H128.922Z" fill="#CFD3D6"/>
<path fill-rule="evenodd" clip-rule="evenodd" d="M128.922 163.719C128.183 163.719 127.584 164.317 127.584 165.056V166.622C127.584 167.361 128.182 167.96 128.921 167.96C142.096 167.96 249.411 167.96 303.733 167.96C308.612 167.96 319.018 167.96 322.713 167.96C323.452 167.96 324.049 167.361 324.049 166.622V165.056C324.049 164.317 323.45 163.719 322.711 163.719H128.922Z" fill="#CFD3D6"/>
<path fill-rule="evenodd" clip-rule="evenodd" d="M129.44 115.61C128.701 115.61 128.102 116.209 128.102 116.948V122.968C128.102 123.706 128.701 124.305 129.44 124.305H193.641C194.38 124.305 194.978 123.706 194.978 122.968V116.948C194.978 116.209 194.38 115.61 193.641 115.61H129.44Z" fill="#ACB2B8"/>
<path fill-rule="evenodd" clip-rule="evenodd" d="M109.377 202.561C115.287 202.561 120.077 197.77 120.077 191.859C120.077 185.949 115.287 181.158 109.377 181.158C103.468 181.158 98.677 185.949 98.677 191.859C98.677 197.77 103.468 202.561 109.377 202.561Z" fill="#C5C5C5"/>
<path fill-rule="evenodd" clip-rule="evenodd" d="M109.712 199.886C113.959 199.886 117.402 196.442 117.402 192.194C117.402 187.946 113.959 184.502 109.712 184.502C105.464 184.502 102.021 187.946 102.021 192.194C102.021 196.442 105.464 199.886 109.712 199.886Z" fill="#B4B4B4"/>
<path fill-rule="evenodd" clip-rule="evenodd" d="M129.591 196.313C128.852 196.313 128.253 196.912 128.253 197.65V199.217C128.253 199.955 128.811 200.554 129.549 200.554C139.048 200.554 198.367 200.554 228.704 200.554C231.264 200.554 236.491 200.554 238.952 200.554C239.691 200.554 240.289 199.955 240.289 199.217V197.65C240.289 196.912 239.691 196.313 238.952 196.313H129.591Z" fill="#CFD3D6"/>
<path fill-rule="evenodd" clip-rule="evenodd" d="M128.922 204.551C128.183 204.551 127.584 205.15 127.584 205.889V207.455C127.584 208.194 128.182 208.793 128.921 208.793C142.096 208.793 249.411 208.793 303.733 208.793C308.612 208.793 319.018 208.793 322.713 208.793C323.452 208.793 324.049 208.194 324.049 207.455V205.889C324.049 205.15 323.45 204.551 322.711 204.551H128.922Z" fill="#CFD3D6"/>
<path fill-rule="evenodd" clip-rule="evenodd" d="M128.922 213.458C128.183 213.458 127.584 214.057 127.584 214.796V216.362C127.584 217.101 128.182 217.7 128.921 217.7C142.096 217.7 249.411 217.7 303.733 217.7C308.612 217.7 319.018 217.7 322.713 217.7C323.452 217.7 324.049 217.101 324.049 216.362V214.796C324.049 214.057 323.45 213.458 322.711 213.458H128.922Z" fill="#CFD3D6"/>
<path fill-rule="evenodd" clip-rule="evenodd" d="M128.922 222.366C128.183 222.366 127.584 222.965 127.584 223.703V225.27C127.584 226.008 128.182 226.607 128.921 226.607C142.096 226.607 249.411 226.607 303.733 226.607C308.612 226.607 319.018 226.607 322.713 226.607C323.452 226.607 324.049 226.008 324.049 225.27V223.703C324.049 222.965 323.45 222.366 322.711 222.366H128.922Z" fill="#CFD3D6"/>
<path fill-rule="evenodd" clip-rule="evenodd" d="M128.922 231.273C128.183 231.273 127.584 231.872 127.584 232.61V234.177C127.584 234.915 128.182 235.514 128.921 235.514C142.096 235.514 249.411 235.514 303.733 235.514C308.612 235.514 319.018 235.514 322.713 235.514C323.452 235.514 324.049 234.915 324.049 234.177V232.61C324.049 231.872 323.45 231.273 322.711 231.273H128.922Z" fill="#CFD3D6"/>
<path fill-rule="evenodd" clip-rule="evenodd" d="M129.44 183.164C128.701 183.164 128.102 183.763 128.102 184.502V190.31C128.102 191.048 128.701 191.647 129.44 191.647H181.578C182.317 191.647 182.916 191.048 182.916 190.31V184.502C182.916 183.763 182.317 183.164 181.578 183.164H129.44Z" fill="#ACB2B8"/>
<path fill-rule="evenodd" clip-rule="evenodd" d="M109.377 312.253C115.287 312.253 120.077 307.462 120.077 301.551C120.077 295.641 115.287 290.85 109.377 290.85C103.468 290.85 98.677 295.641 98.677 301.551C98.677 307.462 103.468 312.253 109.377 312.253Z" fill="#C5C5C5"/>
<path fill-rule="evenodd" clip-rule="evenodd" d="M109.712 309.578C113.959 309.578 117.402 306.134 117.402 301.886C117.402 297.638 113.959 294.194 109.712 294.194C105.464 294.194 102.021 297.638 102.021 301.886C102.021 306.134 105.464 309.578 109.712 309.578Z" fill="#B4B4B4"/>
<path fill-rule="evenodd" clip-rule="evenodd" d="M129.44 292.856C128.701 292.856 128.102 293.455 128.102 294.194V300.002C128.102 300.74 128.701 301.339 129.44 301.339H181.578C182.317 301.339 182.916 300.74 182.916 300.002V294.194C182.916 293.455 182.317 292.856 181.578 292.856H129.44Z" fill="#ACB2B8"/>
<path fill-rule="evenodd" clip-rule="evenodd" d="M60.7356 41.6648V325.157H64.9658V41.6648H60.7356Z" fill="#C5C5C5"/>
<defs>
<filter id="filter0_d" x="0.0266914" y="0.29082" width="399.908" height="358.036" filterUnits="userSpaceOnUse" color-interpolation-filters="sRGB">
<feFlood flood-opacity="0" result="BackgroundImageFix"/>
<feColorMatrix in="SourceAlpha" type="matrix" values="0 0 0 0 0 0 0 0 0 0 0 0 0 0 0 0 0 0 127 0"/>
<feOffset dy="7.58932"/>
<feGaussianBlur stdDeviation="9.48665"/>
<feColorMatrix type="matrix" values="0 0 0 0 0 0 0 0 0 0 0 0 0 0 0 0 0 0 0.12 0"/>
<feBlend mode="normal" in2="BackgroundImageFix" result="effect1_dropShadow"/>
<feBlend mode="normal" in="SourceGraphic" in2="effect1_dropShadow" result="shape"/>
</filter>
</defs>
</svg>
