<svg width="362" height="330" viewBox="0 0 362 330" fill="none" xmlns="http://www.w3.org/2000/svg">
<rect width="361.961" height="320.09" fill="white" fill-opacity="0.49"/>
<rect y="9.33179" width="361.961" height="320.09" fill="white"/>
<rect opacity="0.46" x="0.000732422" y="4.66602" width="361.961" height="320.09" fill="white"/>
<path d="M36.8039 257.693H325.918" stroke="#D5D5D5" stroke-width="0.758932"/>
<rect x="296.014" y="50.0962" width="20.8232" height="204.857" fill="#D5D5D5"/>
<rect x="264.363" y="89.2356" width="20.8232" height="166.134" fill="#D5D5D5"/>
<rect x="232.295" y="106.307" width="20.8232" height="149.063" fill="#D5D5D5"/>
<rect x="201.06" y="123.795" width="20.8232" height="131.575" fill="#D5D5D5"/>
<rect x="169.409" y="140.45" width="20.8232" height="114.92" fill="#D5D5D5"/>
<rect x="137.758" y="131.29" width="20.8232" height="124.08" fill="#D5D5D5"/>
<rect x="106.106" y="149.194" width="20.8232" height="106.592" fill="#D5D5D5"/>
<rect x="74.4549" y="160.852" width="20.8232" height="94.9338" fill="#D5D5D5"/>
<rect x="42.8037" y="151.276" width="20.8232" height="104.094" fill="#D5D5D5"/>
<g opacity="0.5">
<path fill-rule="evenodd" clip-rule="evenodd" d="M31.8715 255.249L330.091 255.275L31.8715 255.249Z" fill="#646464"/>
<path d="M31.8715 255.249L330.091 255.275" stroke="white" stroke-width="1.51786" stroke-linecap="square"/>
</g>
<rect x="296.014" y="108.092" width="20.8232" height="149.034" fill="#F7F7F7"/>
<rect x="264.363" y="133.07" width="20.8232" height="124.056" fill="#F7F7F7"/>
<rect x="232.295" y="150.554" width="20.8232" height="106.572" fill="#F7F7F7"/>
<rect x="201.06" y="162.626" width="20.8232" height="94.9157" fill="#F7F7F7"/>
<rect x="169.409" y="180.944" width="20.8232" height="76.1823" fill="#F7F7F7"/>
<rect x="137.757" y="165.957" width="20.8232" height="91.169" fill="#F7F7F7"/>
<rect x="106.106" y="180.944" width="20.8232" height="76.1823" fill="#F7F7F7"/>
<rect x="74.4549" y="195.93" width="20.8232" height="61.6119" fill="#F7F7F7"/>
<rect x="42.8038" y="204.465" width="20.8232" height="52.8697" fill="#F7F7F7"/>
</svg>
