<svg width="362" height="330" viewBox="0 0 362 330" fill="none" xmlns="http://www.w3.org/2000/svg">
<rect width="361.961" height="320.09" fill="white" fill-opacity="0.49"/>
<rect y="9.33203" width="361.961" height="320.09" fill="white"/>
<rect opacity="0.46" y="4.66626" width="361.961" height="320.09" fill="white"/>
<path fill-rule="evenodd" clip-rule="evenodd" d="M27.08 172.251C26.4454 172.251 25.9311 172.765 25.9311 173.4V178.079C25.9311 178.714 26.4454 179.228 27.08 179.228H337.367C338.002 179.228 338.516 178.714 338.516 178.079V173.4C338.516 172.765 338.002 172.251 337.367 172.251H27.08Z" fill="#CFD3D6"/>
<path fill-rule="evenodd" clip-rule="evenodd" d="M27.08 183.691C26.4454 183.691 25.9311 184.205 25.9311 184.84V189.519C25.9311 190.154 26.4454 190.668 27.08 190.668H337.367C338.002 190.668 338.516 190.154 338.516 189.519V184.84C338.516 184.205 338.002 183.691 337.367 183.691H27.08Z" fill="#CFD3D6"/>
<path fill-rule="evenodd" clip-rule="evenodd" d="M27.08 194.559C26.4454 194.559 25.9311 195.073 25.9311 195.708V200.387C25.9311 201.022 26.4454 201.536 27.08 201.536H337.367C338.002 201.536 338.516 201.022 338.516 200.387V195.708C338.516 195.073 338.002 194.559 337.367 194.559H27.08Z" fill="#CFD3D6"/>
<path fill-rule="evenodd" clip-rule="evenodd" d="M27.08 205.999C26.4454 205.999 25.9311 206.514 25.9311 207.148V211.827C25.9311 212.462 26.4454 212.976 27.08 212.976H337.367C338.002 212.976 338.516 212.462 338.516 211.827V207.148C338.516 206.514 338.002 205.999 337.367 205.999H27.08Z" fill="#CFD3D6"/>
<path fill-rule="evenodd" clip-rule="evenodd" d="M27.08 161.383C26.4454 161.383 25.9311 161.897 25.9311 162.532V167.211C25.9311 167.846 26.4454 168.36 27.08 168.36H337.367C338.002 168.36 338.516 167.846 338.516 167.211V162.532C338.516 161.897 338.002 161.383 337.367 161.383H27.08Z" fill="#CFD3D6"/>
<path fill-rule="evenodd" clip-rule="evenodd" d="M27.0799 145.053C26.4454 145.053 25.931 145.568 25.931 146.202V153.228C25.931 153.862 26.4454 154.377 27.0799 154.377H73.2795C73.9141 154.377 74.4284 153.862 74.4284 153.228V146.202C74.4284 145.568 73.9141 145.053 73.2795 145.053H27.0799Z" fill="#ACB2B8"/>
<path fill-rule="evenodd" clip-rule="evenodd" d="M27.0799 242.922C26.4454 242.922 25.931 243.436 25.931 244.071V250.945C25.931 251.579 26.4454 252.094 27.0799 252.094H109.405C110.039 252.094 110.554 251.579 110.554 250.945V244.071C110.554 243.436 110.039 242.922 109.405 242.922H27.0799Z" fill="#ACB2B8"/>
<path fill-rule="evenodd" clip-rule="evenodd" d="M16.7156 51.6145C15.4465 51.6145 14.4178 52.6433 14.4178 53.9123V107.789C14.4178 109.058 15.4465 110.087 16.7156 110.087H346.004C347.274 110.087 348.302 109.058 348.302 107.789V53.9123C348.302 52.6433 347.274 51.6145 346.004 51.6145H16.7156Z" fill="#E9EFF5"/>
<path fill-rule="evenodd" clip-rule="evenodd" d="M96.7352 85.3916C96.1006 85.3916 95.5862 85.906 95.5862 86.5405V91.235C95.5862 91.8695 96.1006 92.3839 96.7352 92.3839H252.072C252.707 92.3839 253.221 91.8695 253.221 91.235V86.5405C253.221 85.906 252.707 85.3916 252.072 85.3916H96.7352Z" fill="#CFD3D6"/>
<path fill-rule="evenodd" clip-rule="evenodd" d="M130.362 69.2344C129.727 69.2344 129.213 69.7488 129.213 70.3833V77.4085C129.213 78.0431 129.727 78.5575 130.362 78.5575H218.542C219.177 78.5575 219.691 78.0431 219.691 77.4085V70.3833C219.691 69.7488 219.177 69.2344 218.542 69.2344H130.362Z" fill="#ACB2B8"/>
</svg>
