<svg width="362" height="330" viewBox="0 0 362 330" fill="none" xmlns="http://www.w3.org/2000/svg">
<rect x="0.0387573" y="0.449951" width="361.961" height="320.09" fill="white" fill-opacity="0.49"/>
<rect x="0.0387726" y="9.78174" width="361.961" height="320.09" fill="white"/>
<rect opacity="0.46" x="0.0387726" y="5.11597" width="361.961" height="320.09" fill="white"/>
<path fill-rule="evenodd" clip-rule="evenodd" d="M75.1629 212.317V20.2812H286.876V212.317H75.1629ZM286.425 211.866V20.7326H75.6143V211.866H286.425Z" fill="#979797"/>
<path fill-rule="evenodd" clip-rule="evenodd" d="M161.969 169.392C161.221 169.392 160.615 169.998 160.615 170.746V176.16C160.615 176.907 161.221 177.514 161.969 177.514H200.799C201.547 177.514 202.153 176.907 202.153 176.16V170.746C202.153 169.998 201.547 169.392 200.799 169.392H161.969Z" fill="#FC0000"/>
<path fill-rule="evenodd" clip-rule="evenodd" d="M128.876 44.5703C128.128 44.5703 127.522 45.1766 127.522 45.9244V54.4968C127.522 55.2447 128.128 55.8509 128.876 55.8509H239.044C239.792 55.8509 240.398 55.2447 240.398 54.4968V45.9244C240.398 45.1766 239.792 44.5703 239.044 44.5703H128.876Z" fill="#C3C8CD"/>
<path fill-rule="evenodd" clip-rule="evenodd" d="M112.182 66.5823C111.434 66.5823 110.828 67.1885 110.828 67.9364V70.6429C110.828 71.3907 111.434 71.997 112.182 71.997H249.44C250.188 71.997 250.794 71.3907 250.794 70.6429V67.9364C250.794 67.1885 250.188 66.5823 249.44 66.5823H112.182Z" fill="#C3C8CD"/>
<path fill-rule="evenodd" clip-rule="evenodd" d="M112.182 75.6069C111.434 75.6069 110.828 76.2132 110.828 76.961V79.6675C110.828 80.4154 111.434 81.0216 112.182 81.0216H249.44C250.188 81.0216 250.794 80.4154 250.794 79.6675V76.961C250.794 76.2132 250.188 75.6069 249.44 75.6069H112.182Z" fill="#C3C8CD"/>
<rect x="151.046" y="119.715" width="58.6954" height="9.92693" fill="#F7F7F7"/>
<rect x="151.046" y="133.703" width="58.6954" height="9.92693" fill="#F7F7F7"/>
<rect x="163.236" y="148.142" width="46.5048" height="5.41469" fill="#F7F7F7"/>
<rect x="163.236" y="154.91" width="46.5048" height="5.41469" fill="#F7F7F7"/>
<rect x="151.046" y="148.142" width="8.57856" height="8.57326" fill="#F7F7F7"/>
</svg>
