<svg width="362" height="330" viewBox="0 0 362 330" fill="none" xmlns="http://www.w3.org/2000/svg">
<rect width="361.961" height="320.09" fill="white" fill-opacity="0.49"/>
<rect y="9.33179" width="361.961" height="320.09" fill="white"/>
<rect opacity="0.46" y="4.66602" width="361.961" height="320.09" fill="white"/>
<path fill-rule="evenodd" clip-rule="evenodd" d="M90.3772 76.5122C96.2867 76.5122 101.077 71.7209 101.077 65.8105C101.077 59.9002 96.2867 55.1089 90.3772 55.1089C84.4676 55.1089 79.677 59.9002 79.677 65.8105C79.677 71.7209 84.4676 76.5122 90.3772 76.5122Z" fill="#C5C5C5"/>
<path fill-rule="evenodd" clip-rule="evenodd" d="M90.7116 73.837C94.959 73.837 98.4023 70.3933 98.4023 66.1452C98.4023 61.8971 94.959 58.4534 90.7116 58.4534C86.4641 58.4534 83.0208 61.8971 83.0208 66.1452C83.0208 70.3933 86.4641 73.837 90.7116 73.837Z" fill="#B4B4B4"/>
<path fill-rule="evenodd" clip-rule="evenodd" d="M110.591 70.2642C109.852 70.2642 109.253 70.863 109.253 71.6018V73.1681C109.253 73.9068 109.811 74.5057 110.549 74.5057C120.048 74.5057 179.367 74.5057 209.704 74.5057C212.263 74.5057 217.491 74.5057 219.952 74.5057C220.691 74.5057 221.289 73.9068 221.289 73.1681V71.6018C221.289 70.863 220.691 70.2642 219.952 70.2642H110.591Z" fill="#CFD3D6"/>
<path fill-rule="evenodd" clip-rule="evenodd" d="M109.922 78.5024C109.183 78.5024 108.584 79.1013 108.584 79.8401V81.4063C108.584 82.1451 109.182 82.744 109.921 82.744C123.096 82.744 230.411 82.744 284.733 82.744C289.612 82.744 300.018 82.744 303.713 82.744C304.452 82.744 305.049 82.1451 305.049 81.4063V79.8401C305.049 79.1013 304.45 78.5024 303.711 78.5024H109.922Z" fill="#CFD3D6"/>
<path fill-rule="evenodd" clip-rule="evenodd" d="M109.922 87.4097C109.183 87.4097 108.584 88.0085 108.584 88.7473V90.3136C108.584 91.0523 109.182 91.6512 109.921 91.6512C123.096 91.6512 230.411 91.6512 284.733 91.6512C289.612 91.6512 300.018 91.6512 303.713 91.6512C304.452 91.6512 305.049 91.0523 305.049 90.3136V88.7473C305.049 88.0085 304.45 87.4097 303.711 87.4097H109.922Z" fill="#CFD3D6"/>
<path fill-rule="evenodd" clip-rule="evenodd" d="M110.44 57.1155C109.701 57.1155 109.102 57.7143 109.102 58.4531V64.473C109.102 65.2117 109.701 65.8106 110.44 65.8106H165.278C166.017 65.8106 166.616 65.2117 166.616 64.473V58.4531C166.616 57.7143 166.017 57.1155 165.278 57.1155H110.44Z" fill="#ACB2B8"/>
<path fill-rule="evenodd" clip-rule="evenodd" d="M167.953 30.3613C167.215 30.3613 166.616 30.9602 166.616 31.6989V43.0696C166.616 43.8084 167.215 44.4073 167.953 44.4073H238.173C238.912 44.4073 239.511 43.8084 239.511 43.0696V31.6989C239.511 30.9602 238.912 30.3613 238.173 30.3613H167.953Z" fill="#ACB2B8"/>
<path fill-rule="evenodd" clip-rule="evenodd" d="M90.3772 255.096C96.2867 255.096 101.077 250.305 101.077 244.395C101.077 238.484 96.2867 233.693 90.3772 233.693C84.4676 233.693 79.677 238.484 79.677 244.395C79.677 250.305 84.4676 255.096 90.3772 255.096Z" fill="#C5C5C5"/>
<path fill-rule="evenodd" clip-rule="evenodd" d="M90.7116 252.421C94.959 252.421 98.4023 248.977 98.4023 244.729C98.4023 240.481 94.959 237.037 90.7116 237.037C86.4641 237.037 83.0208 240.481 83.0208 244.729C83.0208 248.977 86.4641 252.421 90.7116 252.421Z" fill="#B4B4B4"/>
<path fill-rule="evenodd" clip-rule="evenodd" d="M110.591 248.848C109.852 248.848 109.253 249.447 109.253 250.186V251.752C109.253 252.491 109.811 253.09 110.549 253.09C120.048 253.09 179.367 253.09 209.704 253.09C212.263 253.09 217.491 253.09 219.952 253.09C220.691 253.09 221.289 252.491 221.289 251.752V250.186C221.289 249.447 220.691 248.848 219.952 248.848H110.591Z" fill="#CFD3D6"/>
<path fill-rule="evenodd" clip-rule="evenodd" d="M109.922 257.086C109.183 257.086 108.584 257.685 108.584 258.424V259.99C108.584 260.729 109.182 261.328 109.921 261.328C123.096 261.328 230.411 261.328 284.733 261.328C289.612 261.328 300.018 261.328 303.713 261.328C304.452 261.328 305.049 260.729 305.049 259.99V258.424C305.049 257.685 304.45 257.086 303.711 257.086H109.922Z" fill="#CFD3D6"/>
<path fill-rule="evenodd" clip-rule="evenodd" d="M109.922 265.994C109.183 265.994 108.584 266.593 108.584 267.331V268.898C108.584 269.636 109.182 270.235 109.921 270.235C123.096 270.235 230.411 270.235 284.733 270.235C289.612 270.235 300.018 270.235 303.713 270.235C304.452 270.235 305.049 269.636 305.049 268.898V267.331C305.049 266.593 304.45 265.994 303.711 265.994H109.922Z" fill="#CFD3D6"/>
<path fill-rule="evenodd" clip-rule="evenodd" d="M110.44 235.699C109.701 235.699 109.102 236.298 109.102 237.037V243.057C109.102 243.795 109.701 244.394 110.44 244.394H206.741C207.48 244.394 208.079 243.795 208.079 243.057V237.037C208.079 236.298 207.48 235.699 206.741 235.699H110.44Z" fill="#ACB2B8"/>
<path fill-rule="evenodd" clip-rule="evenodd" d="M90.3772 123.332C96.2867 123.332 101.077 118.541 101.077 112.63C101.077 106.72 96.2867 101.929 90.3772 101.929C84.4676 101.929 79.677 106.72 79.677 112.63C79.677 118.541 84.4676 123.332 90.3772 123.332Z" fill="#C5C5C5"/>
<path fill-rule="evenodd" clip-rule="evenodd" d="M90.7116 120.657C94.959 120.657 98.4023 117.213 98.4023 112.965C98.4023 108.717 94.959 105.273 90.7116 105.273C86.4641 105.273 83.0208 108.717 83.0208 112.965C83.0208 117.213 86.4641 120.657 90.7116 120.657Z" fill="#B4B4B4"/>
<path fill-rule="evenodd" clip-rule="evenodd" d="M110.591 117.084C109.852 117.084 109.253 117.683 109.253 118.421V119.988C109.253 120.726 109.811 121.325 110.549 121.325C120.048 121.325 179.367 121.325 209.704 121.325C212.263 121.325 217.491 121.325 219.952 121.325C220.691 121.325 221.289 120.726 221.289 119.988V118.421C221.289 117.683 220.691 117.084 219.952 117.084H110.591Z" fill="#CFD3D6"/>
<path fill-rule="evenodd" clip-rule="evenodd" d="M109.922 125.322C109.183 125.322 108.584 125.921 108.584 126.66V128.226C108.584 128.965 109.182 129.564 109.921 129.564C123.096 129.564 230.411 129.564 284.733 129.564C289.612 129.564 300.018 129.564 303.713 129.564C304.452 129.564 305.049 128.965 305.049 128.226V126.66C305.049 125.921 304.45 125.322 303.711 125.322H109.922Z" fill="#CFD3D6"/>
<path fill-rule="evenodd" clip-rule="evenodd" d="M109.922 134.229C109.183 134.229 108.584 134.828 108.584 135.567V137.133C108.584 137.872 109.182 138.471 109.921 138.471C123.096 138.471 230.411 138.471 284.733 138.471C289.612 138.471 300.018 138.471 303.713 138.471C304.452 138.471 305.049 137.872 305.049 137.133V135.567C305.049 134.828 304.45 134.229 303.711 134.229H109.922Z" fill="#CFD3D6"/>
<path fill-rule="evenodd" clip-rule="evenodd" d="M109.922 143.136C109.183 143.136 108.584 143.735 108.584 144.474V146.04C108.584 146.779 109.182 147.378 109.921 147.378C123.096 147.378 230.411 147.378 284.733 147.378C289.612 147.378 300.018 147.378 303.713 147.378C304.452 147.378 305.049 146.779 305.049 146.04V144.474C305.049 143.735 304.45 143.136 303.711 143.136H109.922Z" fill="#CFD3D6"/>
<path fill-rule="evenodd" clip-rule="evenodd" d="M109.922 152.044C109.183 152.044 108.584 152.643 108.584 153.381V154.948C108.584 155.686 109.182 156.285 109.921 156.285C123.096 156.285 230.411 156.285 284.733 156.285C289.612 156.285 300.018 156.285 303.713 156.285C304.452 156.285 305.049 155.686 305.049 154.948V153.381C305.049 152.643 304.45 152.044 303.711 152.044H109.922Z" fill="#CFD3D6"/>
<path fill-rule="evenodd" clip-rule="evenodd" d="M110.44 103.935C109.701 103.935 109.102 104.534 109.102 105.273V111.293C109.102 112.032 109.701 112.63 110.44 112.63H174.641C175.38 112.63 175.978 112.032 175.978 111.293V105.273C175.978 104.534 175.38 103.935 174.641 103.935H110.44Z" fill="#ACB2B8"/>
<path fill-rule="evenodd" clip-rule="evenodd" d="M90.3772 190.886C96.2867 190.886 101.077 186.095 101.077 180.185C101.077 174.274 96.2867 169.483 90.3772 169.483C84.4676 169.483 79.677 174.274 79.677 180.185C79.677 186.095 84.4676 190.886 90.3772 190.886Z" fill="#C5C5C5"/>
<path fill-rule="evenodd" clip-rule="evenodd" d="M90.7116 188.211C94.959 188.211 98.4023 184.767 98.4023 180.519C98.4023 176.271 94.959 172.827 90.7116 172.827C86.4641 172.827 83.0208 176.271 83.0208 180.519C83.0208 184.767 86.4641 188.211 90.7116 188.211Z" fill="#B4B4B4"/>
<path fill-rule="evenodd" clip-rule="evenodd" d="M110.591 184.638C109.852 184.638 109.253 185.237 109.253 185.976V187.542C109.253 188.281 109.811 188.879 110.549 188.879C120.048 188.879 179.367 188.879 209.704 188.879C212.263 188.879 217.491 188.879 219.952 188.879C220.691 188.879 221.289 188.281 221.289 187.542V185.976C221.289 185.237 220.691 184.638 219.952 184.638H110.591Z" fill="#CFD3D6"/>
<path fill-rule="evenodd" clip-rule="evenodd" d="M109.922 192.876C109.183 192.876 108.584 193.475 108.584 194.214V195.78C108.584 196.519 109.182 197.118 109.921 197.118C123.096 197.118 230.411 197.118 284.733 197.118C289.612 197.118 300.018 197.118 303.713 197.118C304.452 197.118 305.049 196.519 305.049 195.78V194.214C305.049 193.475 304.45 192.876 303.711 192.876H109.922Z" fill="#CFD3D6"/>
<path fill-rule="evenodd" clip-rule="evenodd" d="M109.922 201.784C109.183 201.784 108.584 202.383 108.584 203.121V204.688C108.584 205.426 109.182 206.025 109.921 206.025C123.096 206.025 230.411 206.025 284.733 206.025C289.612 206.025 300.018 206.025 303.713 206.025C304.452 206.025 305.049 205.426 305.049 204.688V203.121C305.049 202.383 304.45 201.784 303.711 201.784H109.922Z" fill="#CFD3D6"/>
<path fill-rule="evenodd" clip-rule="evenodd" d="M109.922 210.691C109.183 210.691 108.584 211.29 108.584 212.029V213.595C108.584 214.334 109.182 214.932 109.921 214.932C123.096 214.932 230.411 214.932 284.733 214.932C289.612 214.932 300.018 214.932 303.713 214.932C304.452 214.932 305.049 214.334 305.049 213.595V212.029C305.049 211.29 304.45 210.691 303.711 210.691H109.922Z" fill="#CFD3D6"/>
<path fill-rule="evenodd" clip-rule="evenodd" d="M109.922 219.598C109.183 219.598 108.584 220.197 108.584 220.936V222.502C108.584 223.241 109.182 223.839 109.921 223.839C123.096 223.839 230.411 223.839 284.733 223.839C289.612 223.839 300.018 223.839 303.713 223.839C304.452 223.839 305.049 223.241 305.049 222.502V220.936C305.049 220.197 304.45 219.598 303.711 219.598H109.922Z" fill="#CFD3D6"/>
<path fill-rule="evenodd" clip-rule="evenodd" d="M110.44 171.49C109.701 171.49 109.102 172.088 109.102 172.827V178.635C109.102 179.374 109.701 179.973 110.44 179.973H162.578C163.317 179.973 163.916 179.374 163.916 178.635V172.827C163.916 172.088 163.317 171.49 162.578 171.49H110.44Z" fill="#ACB2B8"/>
<path fill-rule="evenodd" clip-rule="evenodd" d="M90.3772 300.578C96.2867 300.578 101.077 295.787 101.077 289.876C101.077 283.966 96.2867 279.175 90.3772 279.175C84.4676 279.175 79.677 283.966 79.677 289.876C79.677 295.787 84.4676 300.578 90.3772 300.578Z" fill="#C5C5C5"/>
<path fill-rule="evenodd" clip-rule="evenodd" d="M90.7116 297.903C94.959 297.903 98.4023 294.459 98.4023 290.211C98.4023 285.963 94.959 282.519 90.7116 282.519C86.4641 282.519 83.0208 285.963 83.0208 290.211C83.0208 294.459 86.4641 297.903 90.7116 297.903Z" fill="#B4B4B4"/>
<path fill-rule="evenodd" clip-rule="evenodd" d="M110.44 281.181C109.701 281.181 109.102 281.78 109.102 282.519V288.327C109.102 289.066 109.701 289.664 110.44 289.664H162.578C163.317 289.664 163.916 289.066 163.916 288.327V282.519C163.916 281.78 163.317 281.181 162.578 281.181H110.44Z" fill="#ACB2B8"/>
<path fill-rule="evenodd" clip-rule="evenodd" d="M41.7356 29.99V313.482H45.9658V29.99H41.7356Z" fill="#C5C5C5"/>
</svg>
