<svg width="400" height="359" viewBox="0 0 400 359" fill="none" xmlns="http://www.w3.org/2000/svg">
<g filter="url(#filter0_d)">
<rect x="19" y="12" width="361.961" height="320.09" fill="white" fill-opacity="0.49"/>
</g>
<rect x="19" y="21.332" width="361.961" height="320.09" fill="white"/>
<rect opacity="0.46" x="19" y="16.6663" width="361.961" height="320.09" fill="white"/>
<path fill-rule="evenodd" clip-rule="evenodd" d="M46.08 184.251C45.4454 184.251 44.9311 184.765 44.9311 185.4V190.079C44.9311 190.714 45.4454 191.228 46.08 191.228H356.367C357.002 191.228 357.516 190.714 357.516 190.079V185.4C357.516 184.765 357.002 184.251 356.367 184.251H46.08Z" fill="#CFD3D6"/>
<path fill-rule="evenodd" clip-rule="evenodd" d="M46.08 195.691C45.4454 195.691 44.9311 196.205 44.9311 196.84V201.519C44.9311 202.154 45.4454 202.668 46.08 202.668H356.367C357.002 202.668 357.516 202.154 357.516 201.519V196.84C357.516 196.205 357.002 195.691 356.367 195.691H46.08Z" fill="#CFD3D6"/>
<path fill-rule="evenodd" clip-rule="evenodd" d="M46.08 206.559C45.4454 206.559 44.9311 207.073 44.9311 207.708V212.387C44.9311 213.022 45.4454 213.536 46.08 213.536H356.367C357.002 213.536 357.516 213.022 357.516 212.387V207.708C357.516 207.073 357.002 206.559 356.367 206.559H46.08Z" fill="#CFD3D6"/>
<path fill-rule="evenodd" clip-rule="evenodd" d="M46.08 217.999C45.4454 217.999 44.9311 218.514 44.9311 219.148V223.827C44.9311 224.462 45.4454 224.976 46.08 224.976H356.367C357.002 224.976 357.516 224.462 357.516 223.827V219.148C357.516 218.514 357.002 217.999 356.367 217.999H46.08Z" fill="#CFD3D6"/>
<path fill-rule="evenodd" clip-rule="evenodd" d="M46.08 173.383C45.4454 173.383 44.9311 173.897 44.9311 174.532V179.211C44.9311 179.846 45.4454 180.36 46.08 180.36H356.367C357.002 180.36 357.516 179.846 357.516 179.211V174.532C357.516 173.897 357.002 173.383 356.367 173.383H46.08Z" fill="#CFD3D6"/>
<path fill-rule="evenodd" clip-rule="evenodd" d="M46.0799 157.053C45.4454 157.053 44.931 157.568 44.931 158.202V165.228C44.931 165.862 45.4454 166.377 46.0799 166.377H92.2795C92.9141 166.377 93.4284 165.862 93.4284 165.228V158.202C93.4284 157.568 92.9141 157.053 92.2795 157.053H46.0799Z" fill="#ACB2B8"/>
<path fill-rule="evenodd" clip-rule="evenodd" d="M46.0799 254.922C45.4454 254.922 44.931 255.436 44.931 256.071V262.945C44.931 263.579 45.4454 264.094 46.0799 264.094H128.405C129.039 264.094 129.554 263.579 129.554 262.945V256.071C129.554 255.436 129.039 254.922 128.405 254.922H46.0799Z" fill="#ACB2B8"/>
<path fill-rule="evenodd" clip-rule="evenodd" d="M35.7156 63.6145C34.4465 63.6145 33.4178 64.6433 33.4178 65.9123V119.789C33.4178 121.058 34.4465 122.087 35.7156 122.087H365.004C366.274 122.087 367.302 121.058 367.302 119.789V65.9123C367.302 64.6433 366.274 63.6145 365.004 63.6145H35.7156Z" fill="#E9EFF5"/>
<path fill-rule="evenodd" clip-rule="evenodd" d="M115.735 97.3916C115.101 97.3916 114.586 97.906 114.586 98.5405V103.235C114.586 103.87 115.101 104.384 115.735 104.384H271.072C271.707 104.384 272.221 103.87 272.221 103.235V98.5405C272.221 97.906 271.707 97.3916 271.072 97.3916H115.735Z" fill="#CFD3D6"/>
<path fill-rule="evenodd" clip-rule="evenodd" d="M149.362 81.2344C148.727 81.2344 148.213 81.7488 148.213 82.3833V89.4085C148.213 90.0431 148.727 90.5575 149.362 90.5575H237.542C238.177 90.5575 238.691 90.0431 238.691 89.4085V82.3833C238.691 81.7488 238.177 81.2344 237.542 81.2344H149.362Z" fill="#ACB2B8"/>
<defs>
<filter id="filter0_d" x="0.0266914" y="0.616015" width="399.908" height="358.036" filterUnits="userSpaceOnUse" color-interpolation-filters="sRGB">
<feFlood flood-opacity="0" result="BackgroundImageFix"/>
<feColorMatrix in="SourceAlpha" type="matrix" values="0 0 0 0 0 0 0 0 0 0 0 0 0 0 0 0 0 0 127 0"/>
<feOffset dy="7.58932"/>
<feGaussianBlur stdDeviation="9.48665"/>
<feColorMatrix type="matrix" values="0 0 0 0 0 0 0 0 0 0 0 0 0 0 0 0 0 0 0.12 0"/>
<feBlend mode="normal" in2="BackgroundImageFix" result="effect1_dropShadow"/>
<feBlend mode="normal" in="SourceGraphic" in2="effect1_dropShadow" result="shape"/>
</filter>
</defs>
</svg>
