<svg width="362" height="330" viewBox="0 0 362 330" fill="none" xmlns="http://www.w3.org/2000/svg">
<rect width="361.961" height="320.09" fill="white" fill-opacity="0.49"/>
<rect x="1.33514e-05" y="9.33179" width="361.961" height="320.09" fill="white"/>
<rect opacity="0.46" x="1.33514e-05" y="4.66602" width="361.961" height="320.09" fill="white"/>
<path d="M122.048 110.362C122.27 110.14 122.631 110.14 122.853 110.362L162.506 150.004L161.298 151.211L121.646 111.57C121.423 111.348 121.423 110.987 121.646 110.765L122.048 110.362Z" fill="#F1F1F1"/>
<path d="M120.792 231.498C120.569 231.276 120.569 230.916 120.792 230.693L160.444 191.052L161.652 192.259L121.999 231.901C121.777 232.123 121.417 232.123 121.194 231.901L120.792 231.498Z" fill="#B7B7B8"/>
<path d="M205.55 170.946H261.627C261.941 170.946 262.196 171.201 262.196 171.515V172.084C262.196 172.399 261.941 172.654 261.627 172.654H205.55V170.946Z" fill="#6D6C6C"/>
<path fill-rule="evenodd" clip-rule="evenodd" d="M182.444 222.355C210.742 222.355 233.682 199.422 233.682 171.131C233.682 142.841 210.742 119.908 182.444 119.908C154.146 119.908 131.206 142.841 131.206 171.131C131.206 199.422 154.146 222.355 182.444 222.355Z" fill="#F1F1F1"/>
<path fill-rule="evenodd" clip-rule="evenodd" d="M131.206 171.131C131.206 199.422 154.146 222.355 182.444 222.355C210.742 222.355 233.682 199.422 233.682 171.131C233.682 142.841 210.742 119.908 182.444 119.908V171.131H131.206Z" fill="#B7B7B8"/>
<path opacity="0.9" fill-rule="evenodd" clip-rule="evenodd" d="M182.444 222.355C210.742 222.355 233.682 199.422 233.682 171.131C233.682 142.841 210.742 119.908 182.444 119.908V171.131V222.355Z" fill="#646363"/>
<rect x="180.736" y="115.355" width="3.13122" height="111.554" fill="white"/>
<rect x="183.583" y="169.424" width="2.84577" height="111.87" transform="rotate(90 183.583 169.424)" fill="white"/>
<rect x="50.8415" y="89.5662" width="70.5711" height="16.6988" rx="1.3509" fill="#F3F3F3"/>
<rect x="50.0827" y="233.783" width="70.5711" height="16.6988" rx="1.3509" fill="#B7B7B8"/>
<rect x="265.59" y="163.193" width="70.5711" height="16.6988" rx="1.3509" fill="#6D6C6C"/>
</svg>
