<svg width="91" height="58" viewBox="0 0 91 58" fill="none" xmlns="http://www.w3.org/2000/svg">
<path d="M8.69517 52.6394H82.3048C83.8278 52.6394 85.0652 51.4059 85.0652 49.8896V2.74982C85.0652 1.23349 83.8278 0 82.3048 0H8.69517C7.17302 0 5.9348 1.23349 5.9348 2.74982V49.8896C5.9348 51.4059 7.17381 52.6394 8.69517 52.6394ZM8.30083 2.74982C8.30083 2.53298 8.4775 2.35699 8.69517 2.35699H82.3048C82.5225 2.35699 82.6992 2.53298 82.6992 2.74982V49.8896C82.6992 50.1064 82.5225 50.2824 82.3048 50.2824H8.69517C8.4775 50.2824 8.30083 50.1064 8.30083 49.8896V2.74982ZM91 54.7434V56.9441C91 57.527 90.5252 58 89.94 58H1.05998C0.474784 58 0 57.527 0 56.9441V54.7434H37.3731C37.5576 55.357 38.1223 55.8072 38.7982 55.8072H52.2026C52.8777 55.8072 53.4424 55.3578 53.6277 54.7434H91Z" fill="#2D2D2D"/>
</svg>
