<svg width="19" height="39" viewBox="0 0 19 39" fill="none" xmlns="http://www.w3.org/2000/svg">
<path d="M16.2857 0C16.9963 9.06977e-05 17.703 0.292772 18.2055 0.796416C18.7079 1.30006 18.9999 2.00859 19 2.72093V36.2791C18.9999 36.9914 18.7079 37.6998 18.2055 38.2036C17.7031 38.7072 16.9963 38.9999 16.2857 39H2.71428C2.00368 38.9999 1.29698 38.7072 0.794472 38.2036C0.292057 37.6998 8.96454e-05 36.9914 0 36.2791V2.72093C8.96454e-05 2.00859 0.292057 1.30015 0.794472 0.796416C1.29689 0.292772 2.00368 9.06977e-05 2.71428 0H16.2857ZM10.9222 1.81395C10.9156 1.81377 10.909 1.81377 10.9024 1.81395C10.8873 1.81323 10.8723 1.81323 10.8571 1.81395H8.14286C7.89305 1.81042 7.68758 2.01059 7.68405 2.261C7.68052 2.51142 7.88021 2.71739 8.13001 2.72093C8.13426 2.72102 8.13851 2.72102 8.14277 2.72093H10.8571C11.1069 2.73871 11.3238 2.55015 11.3416 2.29964C11.3595 2.0494 11.1717 1.83209 10.9222 1.81395ZM18.0952 4.53488H0.904762V34.0116H18.0952V4.53488ZM9.5 34.9186C8.75049 34.9186 8.14286 35.5277 8.14286 36.2791C8.14286 37.0304 8.75049 37.6395 9.5 37.6395C10.2495 37.6395 10.8571 37.0304 10.8571 36.2791C10.8571 35.5276 10.2495 34.9186 9.5 34.9186Z" fill="#2D2D2D"/>
</svg>
