<svg width="39" height="58" viewBox="0 0 39 58" fill="none" xmlns="http://www.w3.org/2000/svg">
<path d="M37.3862 0H1.61379C0.722979 0 0 0.724595 0 1.6186V56.3814C0 57.2754 0.722979 58 1.61379 58H37.3862C38.277 58 39 57.2754 39 56.3814V1.6186C39 0.724595 38.277 0 37.3862 0ZM19.5 55.9767C18.7571 55.9767 18.1552 55.373 18.1552 54.6279C18.1552 53.8828 18.7571 53.2791 19.5 53.2791C20.2429 53.2791 20.8448 53.8828 20.8448 54.6279C20.8448 55.373 20.2429 55.9767 19.5 55.9767ZM37.0274 52.0198H1.97259V3.82153H37.0274V52.0198Z" fill="#2D2D2D"/>
</svg>
