<svg width="23" height="23" viewBox="0 0 23 23" fill="none" xmlns="http://www.w3.org/2000/svg">
<path d="M19.6332 3.36445C15.1489 -1.12148 7.85222 -1.12148 3.36791 3.36445C1.79455 4.93835 0.718311 6.91566 0.255439 9.08269C-0.195185 11.1927 -0.0475776 13.3789 0.682267 15.4047C0.769957 15.6479 1.03826 15.774 1.28136 15.6864C1.52461 15.5987 1.65069 15.3304 1.563 15.0871C0.892443 13.2259 0.756851 11.2172 1.17096 9.27826C1.59592 7.28847 2.58454 5.4724 4.02988 4.02657C8.14923 -0.0941984 14.8519 -0.0941984 18.9712 4.02657C20.9329 5.98905 22.0311 8.59765 22.0633 11.372C22.0955 14.1413 21.0638 16.7707 19.1585 18.7758C19.1359 18.7996 19.1136 18.8234 19.0913 18.8473C19.0518 18.8895 19.0124 18.9318 18.9712 18.973C14.8519 23.0938 8.14923 23.0938 4.02988 18.973C4.00796 18.9511 3.98658 18.9288 3.96544 18.9065C3.96434 18.8632 3.96341 18.8206 3.96341 18.7786C3.96341 18.6844 3.9652 18.5905 3.96863 18.4969C3.96981 18.4656 3.97215 18.4346 3.97371 18.4034C3.97675 18.3412 3.97964 18.279 3.98416 18.2171C3.98689 18.1802 3.99087 18.1437 3.99415 18.1069C3.99906 18.0511 4.00366 17.9953 4.00975 17.9398C4.01404 17.9006 4.01966 17.8618 4.02457 17.8228C4.0312 17.7701 4.03752 17.7172 4.04533 17.6648C4.05125 17.6248 4.05828 17.5853 4.06483 17.5456C4.07318 17.4944 4.08129 17.4433 4.09073 17.3925C4.09814 17.3523 4.10665 17.3125 4.11476 17.2726C4.12482 17.2227 4.13473 17.1727 4.14581 17.1232C4.15478 17.083 4.16477 17.043 4.17436 17.0031C4.18607 16.9543 4.19769 16.9055 4.21033 16.8571C4.22086 16.817 4.23225 16.7772 4.24333 16.7373C4.25667 16.6896 4.26993 16.6417 4.28421 16.5943C4.29615 16.5545 4.30894 16.515 4.32158 16.4755C4.33656 16.4286 4.35154 16.3816 4.36738 16.3351C4.3808 16.2958 4.39484 16.2568 4.40888 16.2178C4.4255 16.1716 4.44219 16.1254 4.45967 16.0795C4.47449 16.0407 4.48986 16.0023 4.50531 15.9638C4.52349 15.9185 4.54182 15.8732 4.56086 15.8282C4.57709 15.79 4.59378 15.752 4.61063 15.7141C4.63037 15.6695 4.65034 15.6251 4.67094 15.581C4.68849 15.5435 4.70644 15.5062 4.72461 15.469C4.74599 15.4252 4.7676 15.3815 4.78976 15.3382C4.80856 15.3015 4.82767 15.265 4.8471 15.2286C4.87004 15.1855 4.89336 15.1426 4.91716 15.0999C4.93721 15.064 4.95749 15.0283 4.97809 14.9928C5.00259 14.9505 5.02747 14.9085 5.05283 14.8667C5.07413 14.8316 5.09566 14.7966 5.11751 14.7618C5.14356 14.7205 5.17001 14.6793 5.19685 14.6385C5.21932 14.6043 5.24194 14.5701 5.26496 14.5363C5.2925 14.4957 5.32066 14.4556 5.34906 14.4155C5.3727 14.3822 5.39634 14.349 5.42052 14.3161C5.44962 14.2765 5.47935 14.2372 5.50923 14.1982C5.53396 14.1659 5.55861 14.1336 5.58389 14.1017C5.61455 14.0629 5.64591 14.0245 5.67735 13.9864C5.70302 13.9552 5.72869 13.924 5.7549 13.8931C5.7872 13.8552 5.8202 13.8178 5.85328 13.7805C5.87996 13.7504 5.90649 13.7202 5.93364 13.6905C5.9675 13.6535 6.00206 13.6172 6.0367 13.5809C6.06431 13.5519 6.09178 13.5228 6.11986 13.4942C6.15536 13.4581 6.19164 13.4228 6.22784 13.3874C6.25624 13.3597 6.2844 13.3317 6.31326 13.3044C6.35056 13.2691 6.38871 13.2347 6.4267 13.2002C6.45572 13.1739 6.48436 13.1473 6.51377 13.1214C6.55301 13.0868 6.59327 13.0532 6.63329 13.0194C6.66262 12.9947 6.69165 12.9696 6.72137 12.9452C6.7628 12.9113 6.80524 12.8785 6.84752 12.8454C6.87701 12.8224 6.90603 12.7988 6.93584 12.7762C6.98038 12.7424 7.02587 12.7098 7.07127 12.677C7.09991 12.6562 7.12799 12.635 7.15701 12.6146C7.2071 12.5794 7.25836 12.5455 7.30946 12.5114C7.33466 12.4946 7.35931 12.4772 7.38467 12.4606C7.45129 12.4173 7.51909 12.3754 7.58735 12.3341C7.59796 12.3277 7.60826 12.3208 7.61895 12.3144C7.6979 12.2671 7.77795 12.2212 7.85893 12.1766C7.88662 12.1613 7.9151 12.1471 7.94311 12.1322C7.99686 12.1034 8.05046 12.0745 8.10515 12.047C8.14018 12.0294 8.17607 12.0128 8.21141 11.9957C8.25603 11.9741 8.3005 11.9523 8.34567 11.9314C9.1941 12.7421 10.3259 13.2011 11.5007 13.2011C12.6754 13.2011 13.8073 12.7421 14.6557 11.9313C16.3119 12.698 17.6675 14.0739 18.4034 15.747C18.5075 15.9836 18.7836 16.0912 19.0204 15.987C19.257 15.8828 19.3644 15.6065 19.2603 15.3699C18.4553 13.5397 17.0539 12.0773 15.28 11.1945C15.7947 10.4392 16.0731 9.54743 16.0731 8.62715C16.0731 6.10502 14.0219 4.0531 11.5007 4.0531C11.2422 4.0531 11.0326 4.26281 11.0326 4.52136C11.0326 4.77992 11.2422 4.98962 11.5007 4.98962C13.5058 4.98962 15.1369 6.62143 15.1369 8.62715C15.1369 9.52402 14.8037 10.3876 14.1988 11.0587C14.1987 11.0588 14.1986 11.0589 14.1986 11.059C13.5078 11.8252 12.5245 12.2647 11.5006 12.2647C10.4767 12.2647 9.4933 11.8252 8.80262 11.059C8.80254 11.0588 8.80238 11.0587 8.80223 11.0587C8.19736 10.3873 7.86423 9.52394 7.86423 8.62722C7.86423 7.64825 8.24737 6.72983 8.94312 6.04134C9.12693 5.85942 9.12849 5.56293 8.94664 5.37914C8.76486 5.19519 8.46847 5.19379 8.28467 5.37555C7.40987 6.24105 6.92804 7.39586 6.92804 8.62691C6.92804 9.54626 7.20577 10.4374 7.71959 11.1923C7.71499 11.1945 7.71054 11.197 7.70602 11.1994C7.6695 11.2176 7.63385 11.237 7.59765 11.2556C7.54218 11.2844 7.48656 11.3129 7.43187 11.3428C7.39317 11.3639 7.35533 11.3861 7.31703 11.4077C7.26593 11.4366 7.21475 11.4654 7.16435 11.4953C7.12526 11.5186 7.0868 11.5426 7.0481 11.5664C6.99973 11.5962 6.95136 11.626 6.90369 11.6566C6.86476 11.6817 6.82654 11.7074 6.78807 11.733C6.74181 11.7639 6.69562 11.7948 6.65006 11.8265C6.61176 11.8532 6.57392 11.8805 6.53608 11.9077C6.49161 11.9398 6.4473 11.972 6.40353 12.0049C6.366 12.033 6.32895 12.0616 6.29197 12.0903C6.24906 12.1236 6.20646 12.1572 6.16433 12.1913C6.12782 12.2208 6.09162 12.2507 6.05558 12.2807C6.01415 12.3154 5.97304 12.3504 5.93231 12.3859C5.89697 12.4165 5.86186 12.4474 5.82707 12.4787C5.78689 12.5149 5.74726 12.5514 5.70786 12.5882C5.67384 12.62 5.6399 12.6518 5.60636 12.6842C5.56743 12.7218 5.52912 12.76 5.49089 12.7983C5.45828 12.831 5.42567 12.8637 5.39368 12.8968C5.35585 12.9361 5.31871 12.976 5.28165 13.016C5.25068 13.0494 5.21947 13.0826 5.18905 13.1166C5.15199 13.1578 5.11595 13.1999 5.07975 13.2418C5.05065 13.2755 5.02131 13.3089 4.99276 13.343C4.95601 13.3869 4.92044 13.4317 4.88463 13.4764C4.85802 13.5096 4.83087 13.5424 4.80474 13.576C4.76713 13.6244 4.73078 13.6737 4.69427 13.7229C4.67133 13.7538 4.64777 13.7842 4.6253 13.8154C4.57911 13.8794 4.53441 13.9443 4.4901 14.0096C4.47847 14.0267 4.46615 14.0434 4.4546 14.0607C4.39944 14.1431 4.34584 14.2264 4.29365 14.3107C4.27563 14.3398 4.2587 14.3696 4.24107 14.3988C4.20729 14.455 4.17335 14.511 4.14082 14.5679C4.12053 14.6034 4.10134 14.6395 4.0816 14.6754C4.05313 14.7269 4.02449 14.7782 3.99719 14.8303C3.9769 14.869 3.95771 14.9081 3.93797 14.947C3.91254 14.9973 3.88703 15.0475 3.86261 15.0983C3.84318 15.1387 3.82469 15.1796 3.80589 15.2202C3.7828 15.2704 3.75963 15.3205 3.73747 15.3712C3.71922 15.4129 3.70174 15.4551 3.68419 15.4971C3.66304 15.5476 3.64206 15.5981 3.62193 15.649C3.605 15.6918 3.58877 15.7348 3.57255 15.7778C3.55335 15.8288 3.53439 15.8799 3.51614 15.9314C3.50069 15.975 3.48571 16.0189 3.47089 16.0628C3.45349 16.1144 3.43656 16.1661 3.42018 16.2182C3.40621 16.2624 3.39272 16.3068 3.37945 16.3513C3.36385 16.4039 3.34879 16.4565 3.3342 16.5094C3.32188 16.5541 3.30979 16.5988 3.29816 16.6438C3.28435 16.6972 3.27125 16.7509 3.25845 16.8048C3.24776 16.8497 3.23715 16.8946 3.22724 16.9397C3.21523 16.9943 3.20407 17.0491 3.19315 17.1041C3.18418 17.149 3.17505 17.194 3.16678 17.2392C3.15656 17.2952 3.14735 17.3515 3.13823 17.408C3.13105 17.4524 3.12348 17.4969 3.11701 17.5415C3.1085 17.5997 3.10133 17.6582 3.09399 17.7168C3.08861 17.7602 3.08268 17.8035 3.07792 17.847C3.07121 17.9084 3.06606 17.9701 3.06068 18.0318C3.05709 18.073 3.0528 18.1139 3.04983 18.1553C3.04484 18.2242 3.04156 18.2934 3.03821 18.3627C3.03657 18.3972 3.034 18.4313 3.03275 18.4658C3.029 18.5698 3.0269 18.6741 3.0269 18.7789C3.0269 18.892 3.03072 18.9989 3.03532 19.117C3.03642 19.1443 3.04024 19.1708 3.0457 19.1967C3.04617 19.1987 3.0464 19.2008 3.04687 19.2028C3.05264 19.2283 3.06076 19.2528 3.07051 19.2766C3.07144 19.2789 3.0723 19.2812 3.07332 19.2836C3.08338 19.307 3.0954 19.3293 3.10897 19.3505C3.11069 19.3532 3.11233 19.3558 3.11404 19.3584C3.12801 19.3793 3.14353 19.3988 3.16046 19.4171C3.16171 19.4184 3.16257 19.4201 3.16382 19.4214L3.22561 19.4872C3.27226 19.5371 3.31891 19.5869 3.3676 19.6356C5.60979 21.8785 8.55499 23 11.5003 23C14.4456 23 17.3908 21.8785 19.6329 19.6356C19.6816 19.5869 19.7283 19.5371 19.7749 19.4872L19.8367 19.4214C21.9111 17.2385 23.0342 14.3761 22.9992 11.3615C22.9643 8.34081 21.7688 5.50081 19.6332 3.36445Z" fill="currentColor"/>
</svg>
